<?xml version="1.0" encoding="utf-8"?>
<!-- Generator: Adobe Illustrator 24.0.1, SVG Export Plug-In . SVG Version: 6.00 Build 0)  -->
<svg version="1.1" id="Layer_1" xmlns="http://www.w3.org/2000/svg" xmlns:xlink="http://www.w3.org/1999/xlink" x="0px" y="0px"
	 viewBox="0 0 792 612" style="enable-background:new 0 0 792 612;" xml:space="preserve">
<style type="text/css">
	.st0{fill:#141648;}
	.st1{opacity:0.25;}
	.st2{fill:#FFFFFF;}
	.st3{fill:none;stroke:#0081B0;stroke-width:2;stroke-miterlimit:10;}
	.st4{fill:#3D4AA3;}
	.st5{fill:#C1C1C0;}
	.st6{fill:#C1C1BF;}
	.st7{fill:none;stroke:#F1F0EF;stroke-miterlimit:10;}
	.st8{fill:none;stroke:#F1F0EF;stroke-width:5;stroke-miterlimit:10;}
</style>
<g id="background">
	<rect x="1" y="1" class="st0" width="789.9" height="609.7"/>
</g>
<g id="stars">
	<g class="st1">
		<g>
			<path class="st2" d="M167,107.3c3.2,0,3.2-5,0-5S163.8,107.3,167,107.3L167,107.3z"/>
		</g>
	</g>
	<g class="st1">
		<g>
			<path class="st2" d="M235.3,61.7c3.2,0,3.2-5,0-5S232.1,61.7,235.3,61.7L235.3,61.7z"/>
		</g>
	</g>
	<g class="st1">
		<g>
			<path class="st2" d="M284.1,56.9c3.2,0,3.2-5,0-5S280.9,56.9,284.1,56.9L284.1,56.9z"/>
		</g>
	</g>
	<g class="st1">
		<g>
			<path class="st2" d="M323.9,23.5c3.2,0,3.2-5,0-5C320.7,18.5,320.7,23.5,323.9,23.5L323.9,23.5z"/>
		</g>
	</g>
	<g class="st1">
		<g>
			<path class="st2" d="M253.2,20.3c3.2,0,3.2-5,0-5C250,15.3,250,20.3,253.2,20.3L253.2,20.3z"/>
		</g>
	</g>
	<g class="st1">
		<g>
			<path class="st2" d="M332.9,86.1c3.2,0,3.2-5,0-5C329.6,81.1,329.6,86.1,332.9,86.1L332.9,86.1z"/>
		</g>
	</g>
	<g class="st1">
		<g>
			<path class="st2" d="M341,91.8c3.2,0,3.2-5,0-5S337.8,91.8,341,91.8L341,91.8z"/>
		</g>
	</g>
	<g class="st1">
		<g>
			<path class="st2" d="M369.4,65.8c3.2,0,3.2-5,0-5C366.2,60.8,366.2,65.8,369.4,65.8L369.4,65.8z"/>
		</g>
	</g>
	<g class="st1">
		<g>
			<path class="st2" d="M375.1,54.4c3.2,0,3.2-5,0-5S371.9,54.4,375.1,54.4L375.1,54.4z"/>
		</g>
	</g>
	<g class="st1">
		<g>
			<path class="st2" d="M397.1,24.3c3.2,0,3.2-5,0-5S393.9,24.3,397.1,24.3L397.1,24.3z"/>
		</g>
	</g>
	<g class="st1">
		<g>
			<path class="st2" d="M422.3,102.4c3.2,0,3.2-5,0-5C419.1,97.4,419.1,102.4,422.3,102.4L422.3,102.4z"/>
		</g>
	</g>
	<g class="st1">
		<g>
			<path class="st2" d="M417.4,107.3c3.2,0,3.2-5,0-5C414.2,102.3,414.2,107.3,417.4,107.3L417.4,107.3z"/>
		</g>
	</g>
	<g class="st1">
		<g>
			<path class="st2" d="M369.4,140.6c3.2,0,3.2-5,0-5C366.2,135.6,366.2,140.6,369.4,140.6L369.4,140.6z"/>
		</g>
	</g>
	<g class="st1">
		<g>
			<path class="st2" d="M379.2,151.2c3.2,0,3.2-5,0-5S376,151.2,379.2,151.2L379.2,151.2z"/>
		</g>
	</g>
	<g class="st1">
		<g>
			<path class="st2" d="M368.6,165.8c3.2,0,3.2-5,0-5S365.4,165.8,368.6,165.8L368.6,165.8z"/>
		</g>
	</g>
	<g class="st1">
		<g>
			<path class="st2" d="M308.5,139.8c3.2,0,3.2-5,0-5S305.2,139.8,308.5,139.8L308.5,139.8z"/>
		</g>
	</g>
	<g class="st1">
		<g>
			<path class="st2" d="M286.5,98.3c3.2,0,3.2-5,0-5S283.3,98.3,286.5,98.3L286.5,98.3z"/>
		</g>
	</g>
	<g class="st1">
		<g>
			<path class="st2" d="M262.1,127.6c3.2,0,3.2-5,0-5S258.9,127.6,262.1,127.6L262.1,127.6z"/>
		</g>
	</g>
	<g class="st1">
		<g>
			<path class="st2" d="M266.2,191c3.2,0,3.2-5,0-5S263,191,266.2,191L266.2,191z"/>
		</g>
	</g>
	<g class="st1">
		<g>
			<path class="st2" d="M280,219.5c3.2,0,3.2-5,0-5S276.8,219.5,280,219.5L280,219.5z"/>
		</g>
	</g>
	<g class="st1">
		<g>
			<path class="st2" d="M317.4,234.9c3.2,0,3.2-5,0-5C314.2,229.9,314.2,234.9,317.4,234.9L317.4,234.9z"/>
		</g>
	</g>
	<g class="st1">
		<g>
			<path class="st2" d="M329.6,286.1c3.2,0,3.2-5,0-5S326.4,286.1,329.6,286.1L329.6,286.1z"/>
		</g>
	</g>
	<g class="st1">
		<g>
			<path class="st2" d="M334.5,304.8c3.2,0,3.2-5,0-5S331.3,304.8,334.5,304.8L334.5,304.8z"/>
		</g>
	</g>
	<g class="st1">
		<g>
			<path class="st2" d="M372.7,324.3c3.2,0,3.2-5,0-5S369.5,324.3,372.7,324.3L372.7,324.3z"/>
		</g>
	</g>
	<g class="st1">
		<g>
			<path class="st2" d="M384.1,288.6c3.2,0,3.2-5,0-5S380.9,288.6,384.1,288.6L384.1,288.6z"/>
		</g>
	</g>
	<g class="st1">
		<g>
			<path class="st2" d="M425.5,326.8c3.2,0,3.2-5,0-5S422.3,326.8,425.5,326.8L425.5,326.8z"/>
		</g>
	</g>
	<g class="st1">
		<g>
			<path class="st2" d="M466.2,314.6c3.2,0,3.2-5,0-5S463,314.6,466.2,314.6L466.2,314.6z"/>
		</g>
	</g>
	<g class="st1">
		<g>
			<path class="st2" d="M475.1,274.7c3.2,0,3.2-5,0-5S471.9,274.7,475.1,274.7L475.1,274.7z"/>
		</g>
	</g>
	<g class="st1">
		<g>
			<path class="st2" d="M428,252c3.2,0,3.2-5,0-5S424.8,252,428,252L428,252z"/>
		</g>
	</g>
	<g class="st1">
		<g>
			<path class="st2" d="M417.4,242.2c3.2,0,3.2-5,0-5C414.2,237.2,414.2,242.2,417.4,242.2L417.4,242.2z"/>
		</g>
	</g>
	<g class="st1">
		<g>
			<path class="st2" d="M404.4,234.9c3.2,0,3.2-5,0-5C401.2,229.9,401.2,234.9,404.4,234.9L404.4,234.9z"/>
		</g>
	</g>
	<g class="st1">
		<g>
			<path class="st2" d="M421.5,208.9c3.2,0,3.2-5,0-5S418.3,208.9,421.5,208.9L421.5,208.9z"/>
		</g>
	</g>
	<g class="st1">
		<g>
			<path class="st2" d="M393.8,202.4c3.2,0,3.2-5,0-5C390.6,197.4,390.6,202.4,393.8,202.4L393.8,202.4z"/>
		</g>
	</g>
	<g class="st1">
		<g>
			<path class="st2" d="M358.1,219.5c3.2,0,3.2-5,0-5C354.8,214.5,354.8,219.5,358.1,219.5L358.1,219.5z"/>
		</g>
	</g>
	<g class="st1">
		<g>
			<path class="st2" d="M554.8,196.8c2.6,0,5.1-2.3,5-5s-2.2-5-5-5c-2.6,0-5.1,2.3-5,5C549.9,194.5,552,196.8,554.8,196.8
				L554.8,196.8z"/>
		</g>
	</g>
	<g class="st1">
		<g>
			<path class="st2" d="M555.6,197.6c2.6,0,5.1-2.3,5-5s-2.2-5-5-5c-2.6,0-5.1,2.3-5,5C550.7,195.3,552.8,197.6,555.6,197.6
				L555.6,197.6z"/>
		</g>
	</g>
	<g class="st1">
		<g>
			<path class="st2" d="M555.6,197.6c2.6,0,5.1-2.3,5-5s-2.2-5-5-5c-2.6,0-5.1,2.3-5,5C550.7,195.3,552.8,197.6,555.6,197.6
				L555.6,197.6z"/>
		</g>
	</g>
	<g class="st1">
		<g>
			<path class="st2" d="M751.6,404.9c2.6,0,5.1-2.3,5-5s-2.2-5-5-5c-2.6,0-5.1,2.3-5,5C746.7,402.6,748.8,404.9,751.6,404.9
				L751.6,404.9z"/>
		</g>
	</g>
	<g class="st1">
		<g>
			<path class="st2" d="M751.6,404.9c2.6,0,5.1-2.3,5-5s-2.2-5-5-5c-2.6,0-5.1,2.3-5,5C746.7,402.6,748.8,404.9,751.6,404.9
				L751.6,404.9z"/>
		</g>
	</g>
	<g class="st1">
		<g>
			<path class="st2" d="M751.6,404.9c2.6,0,5.1-2.3,5-5s-2.2-5-5-5c-2.6,0-5.1,2.3-5,5C746.7,402.6,748.8,404.9,751.6,404.9
				L751.6,404.9z"/>
		</g>
	</g>
	<g class="st1">
		<g>
			<path class="st2" d="M732,547.2c2.6,0,5.1-2.3,5-5s-2.2-5-5-5c-2.6,0-5.1,2.3-5,5C727.2,544.9,729.2,547.2,732,547.2L732,547.2z"
				/>
		</g>
	</g>
	<g class="st1">
		<g>
			<path class="st2" d="M732,547.2c2.6,0,5.1-2.3,5-5s-2.2-5-5-5c-2.6,0-5.1,2.3-5,5C727.2,544.9,729.2,547.2,732,547.2L732,547.2z"
				/>
		</g>
	</g>
	<g class="st1">
		<g>
			<path class="st2" d="M654.8,475.6c2.6,0,5.1-2.3,5-5s-2.2-5-5-5c-2.6,0-5.1,2.3-5,5C649.9,473.3,652,475.6,654.8,475.6
				L654.8,475.6z"/>
		</g>
	</g>
	<g class="st1">
		<g>
			<path class="st2" d="M654.8,475.6c2.6,0,5.1-2.3,5-5s-2.2-5-5-5c-2.6,0-5.1,2.3-5,5C649.9,473.3,652,475.6,654.8,475.6
				L654.8,475.6z"/>
		</g>
	</g>
	<g class="st1">
		<g>
			<path class="st2" d="M594.7,512.2c2.6,0,5.1-2.3,5-5s-2.2-5-5-5c-2.6,0-5.1,2.3-5,5C589.8,509.9,591.8,512.2,594.7,512.2
				L594.7,512.2z"/>
		</g>
	</g>
	<g class="st1">
		<g>
			<path class="st2" d="M594.7,512.2c2.6,0,5.1-2.3,5-5s-2.2-5-5-5c-2.6,0-5.1,2.3-5,5C589.8,509.9,591.8,512.2,594.7,512.2
				L594.7,512.2z"/>
		</g>
	</g>
	<g class="st1">
		<g>
			<path class="st2" d="M436.9,498.3c3.2,0,3.2-5,0-5C433.7,493.3,433.7,498.3,436.9,498.3L436.9,498.3z"/>
		</g>
	</g>
	<g class="st1">
		<g>
			<path class="st2" d="M435.3,498.3c3.2,0,3.2-5,0-5C432.1,493.3,432.1,498.3,435.3,498.3L435.3,498.3z"/>
		</g>
	</g>
	<g class="st1">
		<g>
			<path class="st2" d="M467,526c3.2,0,3.2-5,0-5S463.8,526,467,526L467,526z"/>
		</g>
	</g>
	<g class="st1">
		<g>
			<path class="st2" d="M474.3,532.5c3.2,0,3.2-5,0-5C471.1,527.5,471.1,532.5,474.3,532.5L474.3,532.5z"/>
		</g>
	</g>
	<g class="st1">
		<g>
			<path class="st2" d="M474.3,532.5c3.2,0,3.2-5,0-5C471.1,527.5,471.1,532.5,474.3,532.5L474.3,532.5z"/>
		</g>
	</g>
	<g class="st1">
		<g>
			<path class="st2" d="M509.3,491c3.2,0,3.2-5,0-5C506.1,486,506.1,491,509.3,491L509.3,491z"/>
		</g>
	</g>
	<g class="st1">
		<g>
			<path class="st2" d="M509.3,491c3.2,0,3.2-5,0-5C506.1,486,506.1,491,509.3,491L509.3,491z"/>
		</g>
	</g>
	<g class="st1">
		<g>
			<path class="st2" d="M509.3,491c3.2,0,3.2-5,0-5C506.1,486,506.1,491,509.3,491L509.3,491z"/>
		</g>
	</g>
	<g class="st1">
		<g>
			<path class="st2" d="M612.5,598.3c3.2,0,3.2-5,0-5S609.3,598.3,612.5,598.3L612.5,598.3z"/>
		</g>
	</g>
	<g class="st1">
		<g>
			<path class="st2" d="M612.5,598.3c3.2,0,3.2-5,0-5S609.3,598.3,612.5,598.3L612.5,598.3z"/>
		</g>
	</g>
	<g class="st1">
		<g>
			<path class="st2" d="M694.7,596.7c3.2,0,3.2-5,0-5C691.4,591.7,691.4,596.7,694.7,596.7L694.7,596.7z"/>
		</g>
	</g>
	<g class="st1">
		<g>
			<path class="st2" d="M694.7,596.7c3.2,0,3.2-5,0-5C691.4,591.7,691.4,596.7,694.7,596.7L694.7,596.7z"/>
		</g>
	</g>
	<g class="st1">
		<g>
			<path class="st2" d="M762.9,591c3.2,0,3.2-5,0-5S759.7,591,762.9,591L762.9,591z"/>
		</g>
	</g>
	<g class="st1">
		<g>
			<path class="st2" d="M755.6,577.2c3.2,0,3.2-5,0-5C752.4,572.2,752.4,577.2,755.6,577.2L755.6,577.2z"/>
		</g>
	</g>
	<g class="st1">
		<g>
			<path class="st2" d="M771.1,493.4c3.2,0,3.2-5,0-5C767.9,488.4,767.9,493.4,771.1,493.4L771.1,493.4z"/>
		</g>
	</g>
	<g class="st1">
		<g>
			<path class="st2" d="M762.1,442.2c3.2,0,3.2-5,0-5C758.9,437.2,758.9,442.2,762.1,442.2L762.1,442.2z"/>
		</g>
	</g>
	<g class="st1">
		<g>
			<path class="st2" d="M776.8,406.5c3.2,0,3.2-5,0-5C773.5,401.5,773.5,406.5,776.8,406.5L776.8,406.5z"/>
		</g>
	</g>
	<g class="st1">
		<g>
			<path class="st2" d="M780.8,318.6c3.2,0,3.2-5,0-5S777.6,318.6,780.8,318.6L780.8,318.6z"/>
		</g>
	</g>
	<g class="st1">
		<g>
			<path class="st2" d="M780.8,318.6c3.2,0,3.2-5,0-5S777.6,318.6,780.8,318.6L780.8,318.6z"/>
		</g>
	</g>
	<g class="st1">
		<g>
			<path class="st2" d="M749.9,358.5c3.2,0,3.2-5,0-5S746.7,358.5,749.9,358.5L749.9,358.5z"/>
		</g>
	</g>
	<g class="st1">
		<g>
			<path class="st2" d="M749.9,358.5c3.2,0,3.2-5,0-5S746.7,358.5,749.9,358.5L749.9,358.5z"/>
		</g>
	</g>
	<g class="st1">
		<g>
			<path class="st2" d="M739.4,291.8c3.2,0,3.2-5,0-5C736.1,286.8,736.1,291.8,739.4,291.8L739.4,291.8z"/>
		</g>
	</g>
	<g class="st1">
		<g>
			<path class="st2" d="M739.4,291.8c3.2,0,3.2-5,0-5C736.1,286.8,736.1,291.8,739.4,291.8L739.4,291.8z"/>
		</g>
	</g>
	<g class="st1">
		<g>
			<path class="st2" d="M766.2,253.6c3.2,0,3.2-5,0-5S763,253.6,766.2,253.6L766.2,253.6z"/>
		</g>
	</g>
	<g class="st1">
		<g>
			<path class="st2" d="M766.2,253.6c3.2,0,3.2-5,0-5S763,253.6,766.2,253.6L766.2,253.6z"/>
		</g>
	</g>
	<g class="st1">
		<g>
			<path class="st2" d="M767,256.9c2.6,0,5.1-2.3,5-5s-2.2-5-5-5c-2.6,0-5.1,2.3-5,5C762.1,254.6,764.2,256.9,767,256.9L767,256.9z"
				/>
		</g>
	</g>
	<g class="st1">
		<g>
			<path class="st2" d="M784.9,135.8c2.6,0,5.1-2.3,5-5s-2.2-5-5-5c-2.6,0-5.1,2.3-5,5S782.1,135.8,784.9,135.8L784.9,135.8z"/>
		</g>
	</g>
	<g class="st1">
		<g>
			<path class="st2" d="M726.4,152c2.6,0,5.1-2.3,5-5s-2.2-5-5-5c-2.6,0-5.1,2.3-5,5S723.6,152,726.4,152L726.4,152z"/>
		</g>
	</g>
	<g class="st1">
		<g>
			<path class="st2" d="M626.4,290.3c2.6,0,5.1-2.3,5-5s-2.2-5-5-5c-2.6,0-5.1,2.3-5,5S623.6,290.3,626.4,290.3L626.4,290.3z"/>
		</g>
	</g>
	<g class="st1">
		<g>
			<path class="st2" d="M580.8,277.2c2.6,0,5.1-2.3,5-5s-2.2-5-5-5c-2.6,0-5.1,2.3-5,5C576,275,578,277.2,580.8,277.2L580.8,277.2z"
				/>
		</g>
	</g>
	<g class="st1">
		<g>
			<path class="st2" d="M595.5,277.2c2.6,0,5.1-2.3,5-5s-2.2-5-5-5c-2.6,0-5.1,2.3-5,5C590.6,275,592.7,277.2,595.5,277.2
				L595.5,277.2z"/>
		</g>
	</g>
	<g class="st1">
		<g>
			<path class="st2" d="M562.1,288.6c2.6,0,5.1-2.3,5-5s-2.2-5-5-5c-2.6,0-5.1,2.3-5,5C557.3,286.3,559.3,288.6,562.1,288.6
				L562.1,288.6z"/>
		</g>
	</g>
	<g class="st1">
		<g>
			<path class="st2" d="M501.2,310.6c2.6,0,5.1-2.3,5-5s-2.2-5-5-5c-2.6,0-5.1,2.3-5,5C496.3,308.3,498.4,310.6,501.2,310.6
				L501.2,310.6z"/>
		</g>
	</g>
	<g class="st1">
		<g>
			<path class="st2" d="M549.9,367.5c2.6,0,5.1-2.3,5-5s-2.2-5-5-5c-2.6,0-5.1,2.3-5,5C545.1,365.2,547.1,367.5,549.9,367.5
				L549.9,367.5z"/>
		</g>
	</g>
	<g class="st1">
		<g>
			<path class="st2" d="M602,382.1c2.6,0,5.1-2.3,5-5s-2.2-5-5-5c-2.6,0-5.1,2.3-5,5C597.1,379.8,599.2,382.1,602,382.1L602,382.1z"
				/>
		</g>
	</g>
	<g class="st1">
		<g>
			<path class="st2" d="M347.5,582.1c2.6,0,5.1-2.3,5-5s-2.2-5-5-5c-2.6,0-5.1,2.3-5,5S344.7,582.1,347.5,582.1L347.5,582.1z"/>
		</g>
	</g>
	<g class="st1">
		<g>
			<path class="st2" d="M350.7,607.3c2.6,0,5.1-2.3,5-5s-2.2-5-5-5c-2.6,0-5.1,2.3-5,5C345.9,605,347.9,607.3,350.7,607.3
				L350.7,607.3z"/>
		</g>
	</g>
	<g class="st1">
		<g>
			<path class="st2" d="M345.9,578.9c2.6,0,5.1-2.3,5-5s-2.2-5-5-5c-2.6,0-5.1,2.3-5,5C341,576.6,343.1,578.9,345.9,578.9
				L345.9,578.9z"/>
		</g>
	</g>
	<g class="st1">
		<g>
			<path class="st2" d="M520.7,561.8c2.6,0,5.1-2.3,5-5s-2.2-5-5-5c-2.6,0-5.1,2.3-5,5S517.9,561.8,520.7,561.8L520.7,561.8z"/>
		</g>
	</g>
	<g class="st1">
		<g>
			<path class="st2" d="M554.8,563.4c2.6,0,5.1-2.3,5-5s-2.2-5-5-5c-2.6,0-5.1,2.3-5,5C549.9,561.1,552,563.4,554.8,563.4
				L554.8,563.4z"/>
		</g>
	</g>
	<g class="st1">
		<g>
			<path class="st2" d="M313.3,569.1c2.6,0,5.1-2.3,5-5s-2.2-5-5-5c-2.6,0-5.1,2.3-5,5C308.5,566.8,310.5,569.1,313.3,569.1
				L313.3,569.1z"/>
		</g>
	</g>
	<g class="st1">
		<g>
			<path class="st2" d="M254.8,556.9c2.6,0,5.1-2.3,5-5s-2.2-5-5-5c-2.6,0-5.1,2.3-5,5C249.9,554.6,252,556.9,254.8,556.9
				L254.8,556.9z"/>
		</g>
	</g>
	<g class="st1">
		<g>
			<path class="st2" d="M223.1,485.4c2.6,0,5.1-2.3,5-5s-2.2-5-5-5c-2.6,0-5.1,2.3-5,5C218.2,483.1,220.3,485.4,223.1,485.4
				L223.1,485.4z"/>
		</g>
	</g>
	<g class="st1">
		<g>
			<path class="st2" d="M236.9,420.3c2.6,0,5.1-2.3,5-5s-2.2-5-5-5c-2.6,0-5.1,2.3-5,5S234.1,420.3,236.9,420.3L236.9,420.3z"/>
		</g>
	</g>
	<g class="st1">
		<g>
			<path class="st2" d="M268.6,369.1c2.6,0,5.1-2.3,5-5s-2.2-5-5-5c-2.6,0-5.1,2.3-5,5C263.8,366.8,265.8,369.1,268.6,369.1
				L268.6,369.1z"/>
		</g>
	</g>
	<g class="st1">
		<g>
			<path class="st2" d="M325.5,397.6c2.6,0,5.1-2.3,5-5s-2.2-5-5-5c-2.6,0-5.1,2.3-5,5C320.7,395.3,322.7,397.6,325.5,397.6
				L325.5,397.6z"/>
		</g>
	</g>
	<g class="st1">
		<g>
			<path class="st2" d="M411.7,465c2.6,0,5.1-2.3,5-5s-2.2-5-5-5c-2.6,0-5.1,2.3-5,5C406.8,462.8,408.9,465,411.7,465L411.7,465z"/>
		</g>
	</g>
	<g class="st1">
		<g>
			<path class="st2" d="M348.3,461.8c2.6,0,5.1-2.3,5-5s-2.2-5-5-5c-2.6,0-5.1,2.3-5,5S345.5,461.8,348.3,461.8L348.3,461.8z"/>
		</g>
	</g>
	<g class="st1">
		<g>
			<path class="st2" d="M380.8,457.7c2.6,0,5.1-2.3,5-5s-2.2-5-5-5c-2.6,0-5.1,2.3-5,5C376,455.4,378,457.7,380.8,457.7L380.8,457.7
				z"/>
		</g>
	</g>
	<g class="st1">
		<g>
			<path class="st2" d="M245.9,293.5c2.6,0,5.1-2.3,5-5s-2.2-5-5-5c-2.6,0-5.1,2.3-5,5S243.1,293.5,245.9,293.5L245.9,293.5z"/>
		</g>
	</g>
	<g class="st1">
		<g>
			<path class="st2" d="M280,333.3c2.6,0,5.1-2.3,5-5s-2.2-5-5-5c-2.6,0-5.1,2.3-5,5C275.1,331.1,277.2,333.3,280,333.3L280,333.3z"
				/>
		</g>
	</g>
	<g class="st1">
		<g>
			<path class="st2" d="M178.4,331.7c2.6,0,5.1-2.3,5-5s-2.2-5-5-5c-2.6,0-5.1,2.3-5,5C173.5,329.4,175.6,331.7,178.4,331.7
				L178.4,331.7z"/>
		</g>
	</g>
	<g class="st1">
		<g>
			<path class="st2" d="M79.2,471.6c2.6,0,5.1-2.3,5-5s-2.2-5-5-5c-2.6,0-5.1,2.3-5,5C74.3,469.3,76.4,471.6,79.2,471.6L79.2,471.6z
				"/>
		</g>
	</g>
	<g class="st1">
		<g>
			<path class="st2" d="M113.3,482.9c2.6,0,5.1-2.3,5-5s-2.2-5-5-5c-2.6,0-5.1,2.3-5,5C108.5,480.6,110.5,482.9,113.3,482.9
				L113.3,482.9z"/>
		</g>
	</g>
	<g class="st1">
		<g>
			<path class="st2" d="M76.8,586.2c2.6,0,5.1-2.3,5-5s-2.2-5-5-5c-2.6,0-5.1,2.3-5,5S74,586.2,76.8,586.2L76.8,586.2z"/>
		</g>
	</g>
	<g class="st1">
		<g>
			<path class="st2" d="M17.4,483.7c2.6,0,5.1-2.3,5-5s-2.2-5-5-5c-2.6,0-5.1,2.3-5,5C12.5,481.5,14.6,483.7,17.4,483.7L17.4,483.7z
				"/>
		</g>
	</g>
	<g class="st1">
		<g>
			<path class="st2" d="M41,365.9c2.6,0,5.1-2.3,5-5s-2.2-5-5-5c-2.6,0-5.1,2.3-5,5S38.2,365.9,41,365.9L41,365.9z"/>
		</g>
	</g>
	<g class="st1">
		<g>
			<path class="st2" d="M29.6,113.8c2.6,0,5.1-2.3,5-5c-0.1-2.7-2.2-5-5-5c-2.6,0-5.1,2.3-5,5C24.7,111.5,26.8,113.8,29.6,113.8
				L29.6,113.8z"/>
		</g>
	</g>
	<g class="st1">
		<g>
			<path class="st2" d="M92.2,116.3c2.6,0,5.1-2.3,5-5s-2.2-5-5-5c-2.6,0-5.1,2.3-5,5C87.3,114,89.4,116.3,92.2,116.3L92.2,116.3z"
				/>
		</g>
	</g>
	<g class="st1">
		<g>
			<path class="st2" d="M160.5,215.5c2.6,0,5.1-2.3,5-5s-2.2-5-5-5c-2.6,0-5.1,2.3-5,5S157.7,215.5,160.5,215.5L160.5,215.5z"/>
		</g>
	</g>
	<g class="st1">
		<g>
			<path class="st2" d="M77.6,86.2c2.6,0,5.1-2.3,5-5s-2.2-5-5-5c-2.6,0-5.1,2.3-5,5C72.7,83.9,74.8,86.2,77.6,86.2L77.6,86.2z"/>
		</g>
	</g>
	<g class="st1">
		<g>
			<path class="st2" d="M58.1,48c2.6,0,5.1-2.3,5-5s-2.2-5-5-5c-2.6,0-5.1,2.3-5,5C53.2,45.7,55.3,48,58.1,48L58.1,48z"/>
		</g>
	</g>
	<g class="st1">
		<g>
			<path class="st2" d="M20.7,35.8c2.6,0,5.1-2.3,5-5s-2.2-5-5-5c-2.6,0-5.1,2.3-5,5C15.8,33.5,17.9,35.8,20.7,35.8L20.7,35.8z"/>
		</g>
	</g>
	<g class="st1">
		<g>
			<path class="st2" d="M152.4,13.8c2.6,0,5.1-2.3,5-5s-2.2-5-5-5c-2.6,0-5.1,2.3-5,5S149.6,13.8,152.4,13.8L152.4,13.8z"/>
		</g>
	</g>
	<g class="st1">
		<g>
			<path class="st2" d="M459.7,161.8c2.6,0,5.1-2.3,5-5s-2.2-5-5-5c-2.6,0-5.1,2.3-5,5C454.8,159.5,456.9,161.8,459.7,161.8
				L459.7,161.8z"/>
		</g>
	</g>
	<g class="st1">
		<g>
			<path class="st2" d="M480.8,226c2.6,0,5.1-2.3,5-5s-2.2-5-5-5c-2.6,0-5.1,2.3-5,5C476,223.7,478,226,480.8,226L480.8,226z"/>
		</g>
	</g>
	<g class="st1">
		<g>
			<path class="st2" d="M422.3,279.7c2.6,0,5.1-2.3,5-5s-2.2-5-5-5c-2.6,0-5.1,2.3-5,5C417.4,277.4,419.5,279.7,422.3,279.7
				L422.3,279.7z"/>
		</g>
	</g>
	<g class="st1">
		<g>
			<path class="st2" d="M393.8,278.9c2.6,0,5.1-2.3,5-5s-2.2-5-5-5c-2.6,0-5.1,2.3-5,5C389,276.6,391,278.9,393.8,278.9L393.8,278.9
				z"/>
		</g>
	</g>
	<g class="st1">
		<g>
			<path class="st2" d="M393.8,278.9c2.6,0,5.1-2.3,5-5s-2.2-5-5-5c-2.6,0-5.1,2.3-5,5C389,276.6,391,278.9,393.8,278.9L393.8,278.9
				z"/>
		</g>
	</g>
	<g class="st1">
		<g>
			<path class="st2" d="M393.8,278.9c2.6,0,5.1-2.3,5-5s-2.2-5-5-5c-2.6,0-5.1,2.3-5,5C389,276.6,391,278.9,393.8,278.9L393.8,278.9
				z"/>
		</g>
	</g>
	<g class="st1">
		<g>
			<path class="st2" d="M401.2,356.1c2.6,0,5.1-2.3,5-5s-2.2-5-5-5c-2.6,0-5.1,2.3-5,5C396.3,353.8,398.4,356.1,401.2,356.1
				L401.2,356.1z"/>
		</g>
	</g>
	<g class="st1">
		<g>
			<path class="st2" d="M236.1,89.4c2.6,0,5.1-2.3,5-5s-2.2-5-5-5c-2.6,0-5.1,2.3-5,5C231.2,87.1,233.3,89.4,236.1,89.4L236.1,89.4z
				"/>
		</g>
	</g>
	<g class="st1">
		<g>
			<path class="st2" d="M725.5,39c2.6,0,5.1-2.3,5-5s-2.2-5-5-5c-2.6,0-5.1,2.3-5,5C720.7,36.7,722.7,39,725.5,39L725.5,39z"/>
		</g>
	</g>
	<g class="st1">
		<g>
			<path class="st2" d="M454,87c2.6,0,5.1-2.3,5-5s-2.2-5-5-5c-2.6,0-5.1,2.3-5,5S451.2,87,454,87L454,87z"/>
		</g>
	</g>
	<g class="st1">
		<g>
			<path class="st2" d="M416.6,51.2c2.6,0,5.1-2.3,5-5s-2.2-5-5-5c-2.6,0-5.1,2.3-5,5S413.8,51.2,416.6,51.2L416.6,51.2z"/>
		</g>
	</g>
	<g class="st1">
		<g>
			<path class="st2" d="M454,15.5c2.6,0,5.1-2.3,5-5s-2.2-5-5-5c-2.6,0-5.1,2.3-5,5S451.2,15.5,454,15.5L454,15.5z"/>
		</g>
	</g>
	<g class="st1">
		<g>
			<path class="st2" d="M593.8,74.8c2.6,0,5.1-2.3,5-5s-2.2-5-5-5c-2.6,0-5.1,2.3-5,5C589,72.5,591,74.8,593.8,74.8L593.8,74.8z"/>
		</g>
	</g>
	<g class="st1">
		<g>
			<path class="st2" d="M597.9,170.7c3.2,0,3.2-5,0-5S594.7,170.7,597.9,170.7L597.9,170.7z"/>
		</g>
	</g>
	<g class="st1">
		<g>
			<path class="st2" d="M596.3,122.7c3.2,0,3.2-5,0-5S593.1,122.7,596.3,122.7L596.3,122.7z"/>
		</g>
	</g>
	<g class="st1">
		<g>
			<path class="st2" d="M632,118.6c3.2,0,3.2-5,0-5S628.8,118.6,632,118.6L632,118.6z"/>
		</g>
	</g>
	<g class="st1">
		<g>
			<path class="st2" d="M657.3,93.4c3.2,0,3.2-5,0-5C654,88.4,654,93.4,657.3,93.4L657.3,93.4z"/>
		</g>
	</g>
	<g class="st1">
		<g>
			<path class="st2" d="M683.3,47.9c3.2,0,3.2-5,0-5S680,47.9,683.3,47.9L683.3,47.9z"/>
		</g>
	</g>
	<g class="st1">
		<g>
			<path class="st2" d="M628.8,30c3.2,0,3.2-5,0-5S625.6,30,628.8,30L628.8,30z"/>
		</g>
	</g>
	<g class="st1">
		<g>
			<path class="st2" d="M561.3,13.8c3.2,0,3.2-5,0-5S558.1,13.8,561.3,13.8L561.3,13.8z"/>
		</g>
	</g>
	<g class="st1">
		<g>
			<path class="st2" d="M516.6,15.4c3.2,0,3.2-5,0-5C513.4,10.4,513.4,15.4,516.6,15.4L516.6,15.4z"/>
		</g>
	</g>
	<g class="st1">
		<g>
			<path class="st2" d="M519,51.2c3.2,0,3.2-5,0-5S515.8,51.2,519,51.2L519,51.2z"/>
		</g>
	</g>
	<g class="st1">
		<g>
			<path class="st2" d="M487.3,56c3.2,0,3.2-5,0-5C484.1,51,484.1,56,487.3,56L487.3,56z"/>
		</g>
	</g>
	<g class="st1">
		<g>
			<path class="st2" d="M448.3,45.5c3.2,0,3.2-5,0-5C445.1,40.5,445.1,45.5,448.3,45.5L448.3,45.5z"/>
		</g>
	</g>
	<g class="st1">
		<g>
			<path class="st2" d="M438.6,59.3c3.2,0,3.2-5,0-5C435.3,54.3,435.3,59.3,438.6,59.3L438.6,59.3z"/>
		</g>
	</g>
	<g class="st1">
		<g>
			<path class="st2" d="M462.9,99.1c3.2,0,3.2-5,0-5C459.7,94.1,459.7,99.1,462.9,99.1L462.9,99.1z"/>
		</g>
	</g>
	<g class="st1">
		<g>
			<path class="st2" d="M474.3,117.8c3.2,0,3.2-5,0-5C471.1,112.8,471.1,117.8,474.3,117.8L474.3,117.8z"/>
		</g>
	</g>
	<g class="st1">
		<g>
			<path class="st2" d="M480.8,126.8c3.2,0,3.2-5,0-5C477.6,121.8,477.6,126.8,480.8,126.8L480.8,126.8z"/>
		</g>
	</g>
	<g class="st1">
		<g>
			<path class="st2" d="M519,192.6c3.2,0,3.2-5,0-5S515.8,192.6,519,192.6L519,192.6z"/>
		</g>
	</g>
	<g class="st1">
		<g>
			<path class="st2" d="M525.5,136.5c3.2,0,3.2-5,0-5S522.3,136.5,525.5,136.5L525.5,136.5z"/>
		</g>
	</g>
	<g class="st1">
		<g>
			<path class="st2" d="M527.2,107.3c3.2,0,3.2-5,0-5S523.9,107.3,527.2,107.3L527.2,107.3z"/>
		</g>
	</g>
	<g class="st1">
		<g>
			<path class="st2" d="M678.4,149.5c3.2,0,3.2-5,0-5S675.2,149.5,678.4,149.5L678.4,149.5z"/>
		</g>
	</g>
	<g class="st1">
		<g>
			<path class="st2" d="M694.7,134.1c3.2,0,3.2-5,0-5C691.4,129.1,691.4,134.1,694.7,134.1L694.7,134.1z"/>
		</g>
	</g>
	<g class="st1">
		<g>
			<path class="st2" d="M734.5,91c3.2,0,3.2-5,0-5S731.3,91,734.5,91L734.5,91z"/>
		</g>
	</g>
	<g class="st1">
		<g>
			<path class="st2" d="M779.2,74.7c3.2,0,3.2-5,0-5S776,74.7,779.2,74.7L779.2,74.7z"/>
		</g>
	</g>
	<g class="st1">
		<g>
			<path class="st2" d="M747.5,40.6c3.2,0,3.2-5,0-5S744.3,40.6,747.5,40.6L747.5,40.6z"/>
		</g>
	</g>
	<g class="st1">
		<g>
			<path class="st2" d="M755.6,25.2c3.2,0,3.2-5,0-5C752.4,20.2,752.4,25.2,755.6,25.2L755.6,25.2z"/>
		</g>
	</g>
	<g class="st1">
		<g>
			<path class="st2" d="M758.1,141.4c3.2,0,3.2-5,0-5C754.8,136.4,754.8,141.4,758.1,141.4L758.1,141.4z"/>
		</g>
	</g>
	<g class="st1">
		<g>
			<path class="st2" d="M748.3,151.2c3.2,0,3.2-5,0-5S745.1,151.2,748.3,151.2L748.3,151.2z"/>
		</g>
	</g>
	<g class="st1">
		<g>
			<path class="st2" d="M768.6,194.3c3.2,0,3.2-5,0-5C765.4,189.3,765.4,194.3,768.6,194.3L768.6,194.3z"/>
		</g>
	</g>
	<g class="st1">
		<g>
			<path class="st2" d="M725.5,201.6c3.2,0,3.2-5,0-5S722.3,201.6,725.5,201.6L725.5,201.6z"/>
		</g>
	</g>
	<g class="st1">
		<g>
			<path class="st2" d="M696.3,265.8c3.2,0,3.2-5,0-5S693.1,265.8,696.3,265.8L696.3,265.8z"/>
		</g>
	</g>
	<g class="st1">
		<g>
			<path class="st2" d="M738.6,294.3c3.2,0,3.2-5,0-5C735.3,289.3,735.3,294.3,738.6,294.3L738.6,294.3z"/>
		</g>
	</g>
	<g class="st1">
		<g>
			<path class="st2" d="M697.9,265c3.2,0,3.2-5,0-5S694.7,265,697.9,265L697.9,265z"/>
		</g>
	</g>
	<g class="st1">
		<g>
			<path class="st2" d="M691.4,339c3.2,0,3.2-5,0-5S688.2,339,691.4,339L691.4,339z"/>
		</g>
	</g>
	<g class="st1">
		<g>
			<path class="st2" d="M678.4,342.2c3.2,0,3.2-5,0-5S675.2,342.2,678.4,342.2L678.4,342.2z"/>
		</g>
	</g>
	<g class="st1">
		<g>
			<path class="st2" d="M694.7,408.1c3.2,0,3.2-5,0-5C691.4,403.1,691.4,408.1,694.7,408.1L694.7,408.1z"/>
		</g>
	</g>
	<g class="st1">
		<g>
			<path class="st2" d="M669.4,435.7c3.2,0,3.2-5,0-5S666.2,435.7,669.4,435.7L669.4,435.7z"/>
		</g>
	</g>
	<g class="st1">
		<g>
			<path class="st2" d="M652.4,434.1c3.2,0,3.2-5,0-5S649.2,434.1,652.4,434.1L652.4,434.1z"/>
		</g>
	</g>
	<g class="st1">
		<g>
			<path class="st2" d="M631.2,394.3c3.2,0,3.2-5,0-5S628,394.3,631.2,394.3L631.2,394.3z"/>
		</g>
	</g>
	<g class="st1">
		<g>
			<path class="st2" d="M643.4,381.2c3.2,0,3.2-5,0-5S640.2,381.2,643.4,381.2L643.4,381.2z"/>
		</g>
	</g>
	<g class="st1">
		<g>
			<path class="st2" d="M590.6,437.3c3.2,0,3.2-5,0-5C587.4,432.3,587.4,437.3,590.6,437.3L590.6,437.3z"/>
		</g>
	</g>
	<g class="st1">
		<g>
			<path class="st2" d="M610.1,458.5c3.2,0,3.2-5,0-5C606.9,453.5,606.9,458.5,610.1,458.5L610.1,458.5z"/>
		</g>
	</g>
	<g class="st1">
		<g>
			<path class="st2" d="M623.9,467.4c3.2,0,3.2-5,0-5S620.7,467.4,623.9,467.4L623.9,467.4z"/>
		</g>
	</g>
	<g class="st1">
		<g>
			<path class="st2" d="M643.4,492.6c3.2,0,3.2-5,0-5S640.2,492.6,643.4,492.6L643.4,492.6z"/>
		</g>
	</g>
	<g class="st1">
		<g>
			<path class="st2" d="M712.5,459.3c3.2,0,3.2-5,0-5S709.3,459.3,712.5,459.3L712.5,459.3z"/>
		</g>
	</g>
	<g class="st1">
		<g>
			<path class="st2" d="M727.2,473.9c3.2,0,3.2-5,0-5S723.9,473.9,727.2,473.9L727.2,473.9z"/>
		</g>
	</g>
	<g class="st1">
		<g>
			<path class="st2" d="M514.2,488.6c3.2,0,3.2-5,0-5C510.9,483.6,510.9,488.6,514.2,488.6L514.2,488.6z"/>
		</g>
	</g>
	<g class="st1">
		<g>
			<path class="st2" d="M509.6,486.5c0.3,0.5,0.5,1.1,0.8,1.6c0.2,0.3,0.4,0.5,0.6,0.7s0.5,0.4,0.9,0.4c0.3,0.1,0.7,0.1,1,0
				c0.3,0,0.6-0.1,0.9-0.3c0.2-0.1,0.3-0.3,0.5-0.4c0.3-0.3,0.5-0.7,0.6-1.1c0-0.2,0.1-0.4,0.1-0.7c0-0.5-0.1-0.9-0.3-1.3
				c-0.3-0.5-0.5-1.1-0.8-1.6c-0.2-0.3-0.4-0.5-0.6-0.7c-0.2-0.2-0.5-0.4-0.9-0.4c-0.3-0.1-0.7-0.1-1,0c-0.3,0-0.6,0.1-0.9,0.3
				c-0.2,0.1-0.3,0.3-0.5,0.4c-0.3,0.3-0.5,0.7-0.6,1.1c0,0.2-0.1,0.4-0.1,0.7C509.2,485.7,509.3,486.1,509.6,486.5L509.6,486.5z"/>
		</g>
	</g>
	<g class="st1">
		<g>
			<path class="st2" d="M511.7,488.6c3.2,0,3.2-5,0-5S508.5,488.6,511.7,488.6L511.7,488.6z"/>
		</g>
	</g>
	<g class="st1">
		<g>
			<path class="st2" d="M519.9,558.5c3.2,0,3.2-5,0-5C516.6,553.5,516.6,558.5,519.9,558.5L519.9,558.5z"/>
		</g>
	</g>
	<g class="st1">
		<g>
			<path class="st2" d="M386.5,566.6c3.2,0,3.2-5,0-5S383.3,566.6,386.5,566.6L386.5,566.6z"/>
		</g>
	</g>
	<g class="st1">
		<g>
			<path class="st2" d="M386.5,566.6c3.2,0,3.2-5,0-5S383.3,566.6,386.5,566.6L386.5,566.6z"/>
		</g>
	</g>
	<g class="st1">
		<g>
			<path class="st2" d="M386.5,566.6c3.2,0,3.2-5,0-5S383.3,566.6,386.5,566.6L386.5,566.6z"/>
		</g>
	</g>
	<g class="st1">
		<g>
			<path class="st2" d="M386.5,566.6c3.2,0,3.2-5,0-5S383.3,566.6,386.5,566.6L386.5,566.6z"/>
		</g>
	</g>
	<g class="st1">
		<g>
			<path class="st2" d="M386.5,566.6c3.2,0,3.2-5,0-5S383.3,566.6,386.5,566.6L386.5,566.6z"/>
		</g>
	</g>
	<g class="st1">
		<g>
			<path class="st2" d="M386.5,566.6c3.2,0,3.2-5,0-5S383.3,566.6,386.5,566.6L386.5,566.6z"/>
		</g>
	</g>
	<g class="st1">
		<g>
			<path class="st2" d="M265.4,190.2c3.2,0,3.2-5,0-5C262.2,185.2,262.2,190.2,265.4,190.2L265.4,190.2z"/>
		</g>
	</g>
	<g class="st1">
		<g>
			<path class="st2" d="M265.4,190.2c3.2,0,3.2-5,0-5C262.2,185.2,262.2,190.2,265.4,190.2L265.4,190.2z"/>
		</g>
	</g>
	<g class="st1">
		<g>
			<path class="st2" d="M277.6,217c3.2,0,3.2-5,0-5S274.4,217,277.6,217L277.6,217z"/>
		</g>
	</g>
	<g class="st1">
		<g>
			<path class="st2" d="M277.6,217c3.2,0,3.2-5,0-5S274.4,217,277.6,217L277.6,217z"/>
		</g>
	</g>
	<g class="st1">
		<g>
			<path class="st2" d="M263.8,126c3.2,0,3.2-5,0-5C260.5,121,260.5,126,263.8,126L263.8,126z"/>
		</g>
	</g>
	<g class="st1">
		<g>
			<path class="st2" d="M263.8,126c3.2,0,3.2-5,0-5C260.5,121,260.5,126,263.8,126L263.8,126z"/>
		</g>
	</g>
	<g class="st1">
		<g>
			<path class="st2" d="M129.6,304.8c3.2,0,3.2-5,0-5C126.4,299.8,126.4,304.8,129.6,304.8L129.6,304.8z"/>
		</g>
	</g>
	<g class="st1">
		<g>
			<path class="st2" d="M219.9,254.4c3.2,0,3.2-5,0-5C216.6,249.4,216.6,254.4,219.9,254.4L219.9,254.4z"/>
		</g>
	</g>
	<g class="st1">
		<g>
			<path class="st2" d="M68.6,321.9c3.2,0,3.2-5,0-5S65.4,321.9,68.6,321.9L68.6,321.9z"/>
		</g>
	</g>
	<g class="st1">
		<g>
			<path class="st2" d="M76.8,327.6c3.2,0,3.2-5,0-5C73.5,322.6,73.5,327.6,76.8,327.6L76.8,327.6z"/>
		</g>
	</g>
	<g class="st1">
		<g>
			<path class="st2" d="M76.8,327.6c3.2,0,3.2-5,0-5C73.5,322.6,73.5,327.6,76.8,327.6L76.8,327.6z"/>
		</g>
	</g>
	<g class="st1">
		<g>
			<path class="st2" d="M67.8,321.9c3.2,0,3.2-5,0-5C64.6,316.9,64.6,321.9,67.8,321.9L67.8,321.9z"/>
		</g>
	</g>
	<g class="st1">
		<g>
			<path class="st2" d="M67.8,321.9c3.2,0,3.2-5,0-5C64.6,316.9,64.6,321.9,67.8,321.9L67.8,321.9z"/>
		</g>
	</g>
	<g class="st1">
		<g>
			<path class="st2" d="M65.4,282.9c3.2,0,3.2-5,0-5C62.2,277.9,62.2,282.9,65.4,282.9L65.4,282.9z"/>
		</g>
	</g>
	<g class="st1">
		<g>
			<path class="st2" d="M65.4,282.9c3.2,0,3.2-5,0-5C62.2,277.9,62.2,282.9,65.4,282.9L65.4,282.9z"/>
		</g>
	</g>
	<g class="st1">
		<g>
			<path class="st2" d="M27.2,293.4c3.2,0,3.2-5,0-5S23.9,293.4,27.2,293.4L27.2,293.4z"/>
		</g>
	</g>
	<g class="st1">
		<g>
			<path class="st2" d="M27.2,293.4c3.2,0,3.2-5,0-5S23.9,293.4,27.2,293.4L27.2,293.4z"/>
		</g>
	</g>
	<g class="st1">
		<g>
			<path class="st2" d="M62.1,258.5c3.2,0,3.2-5,0-5S58.9,258.5,62.1,258.5L62.1,258.5z"/>
		</g>
	</g>
	<g class="st1">
		<g>
			<path class="st2" d="M62.1,258.5c3.2,0,3.2-5,0-5S58.9,258.5,62.1,258.5L62.1,258.5z"/>
		</g>
	</g>
	<g class="st1">
		<g>
			<path class="st2" d="M33.7,234.9c3.2,0,3.2-5,0-5S30.5,234.9,33.7,234.9L33.7,234.9z"/>
		</g>
	</g>
	<g class="st1">
		<g>
			<path class="st2" d="M33.7,234.9c3.2,0,3.2-5,0-5S30.5,234.9,33.7,234.9L33.7,234.9z"/>
		</g>
	</g>
	<g class="st1">
		<g>
			<path class="st2" d="M31.2,205.6c3.2,0,3.2-5,0-5S28,205.6,31.2,205.6L31.2,205.6z"/>
		</g>
	</g>
	<g class="st1">
		<g>
			<path class="st2" d="M66.2,196.7c3.2,0,3.2-5,0-5S63,196.7,66.2,196.7L66.2,196.7z"/>
		</g>
	</g>
	<g class="st1">
		<g>
			<path class="st2" d="M66.2,196.7c3.2,0,3.2-5,0-5S63,196.7,66.2,196.7L66.2,196.7z"/>
		</g>
	</g>
	<g class="st1">
		<g>
			<path class="st2" d="M16.6,169.1c3.2,0,3.2-5,0-5S13.4,169.1,16.6,169.1L16.6,169.1z"/>
		</g>
	</g>
	<g class="st1">
		<g>
			<path class="st2" d="M16.6,169.1c3.2,0,3.2-5,0-5S13.4,169.1,16.6,169.1L16.6,169.1z"/>
		</g>
	</g>
	<g class="st1">
		<g>
			<path class="st2" d="M56.4,130c3.2,0,3.2-5,0-5S53.2,130,56.4,130L56.4,130z"/>
		</g>
	</g>
	<g class="st1">
		<g>
			<path class="st2" d="M107.7,122.7c3.2,0,3.2-5,0-5C104.4,117.7,104.4,122.7,107.7,122.7L107.7,122.7z"/>
		</g>
	</g>
	<g class="st1">
		<g>
			<path class="st2" d="M128.8,108.1c3.2,0,3.2-5,0-5C125.6,103.1,125.6,108.1,128.8,108.1L128.8,108.1z"/>
		</g>
	</g>
	<g class="st1">
		<g>
			<path class="st2" d="M159.7,154.4c3.2,0,3.2-5,0-5S156.5,154.4,159.7,154.4L159.7,154.4z"/>
		</g>
	</g>
	<g class="st1">
		<g>
			<path class="st2" d="M141.8,190.2c3.2,0,3.2-5,0-5S138.6,190.2,141.8,190.2L141.8,190.2z"/>
		</g>
	</g>
	<g class="st1">
		<g>
			<path class="st2" d="M141.8,190.2c3.2,0,3.2-5,0-5S138.6,190.2,141.8,190.2L141.8,190.2z"/>
		</g>
	</g>
	<g class="st1">
		<g>
			<path class="st2" d="M131.2,202.4c3.2,0,3.2-5,0-5S128,202.4,131.2,202.4L131.2,202.4z"/>
		</g>
	</g>
	<g class="st1">
		<g>
			<path class="st2" d="M157.3,241.4c3.2,0,3.2-5,0-5C154,236.4,154,241.4,157.3,241.4L157.3,241.4z"/>
		</g>
	</g>
	<g class="st1">
		<g>
			<path class="st2" d="M108.5,252c3.2,0,3.2-5,0-5S105.2,252,108.5,252L108.5,252z"/>
		</g>
	</g>
	<g class="st1">
		<g>
			<path class="st2" d="M111.7,46.3c3.2,0,3.2-5,0-5S108.5,46.3,111.7,46.3L111.7,46.3z"/>
		</g>
	</g>
	<g class="st1">
		<g>
			<path class="st2" d="M100.3,8.1c3.2,0,3.2-5,0-5C97.1,3.1,97.1,8.1,100.3,8.1L100.3,8.1z"/>
		</g>
	</g>
	<g class="st1">
		<g>
			<path class="st2" d="M161.3,33.3c3.2,0,3.2-5,0-5S158.1,33.3,161.3,33.3L161.3,33.3z"/>
		</g>
	</g>
	<g class="st1">
		<g>
			<path class="st2" d="M143.4,21.9c3.2,0,3.2-5,0-5S140.2,21.9,143.4,21.9L143.4,21.9z"/>
		</g>
	</g>
	<g class="st1">
		<g>
			<path class="st2" d="M49.9,60.1c3.2,0,3.2-5,0-5S46.7,60.1,49.9,60.1L49.9,60.1z"/>
		</g>
	</g>
	<g class="st1">
		<g>
			<path class="st2" d="M66.2,60.1c3.2,0,3.2-5,0-5S63,60.1,66.2,60.1L66.2,60.1z"/>
		</g>
	</g>
	<g class="st1">
		<g>
			<path class="st2" d="M458.1,228.4c3.2,0,3.2-5,0-5C454.8,223.4,454.8,228.4,458.1,228.4L458.1,228.4z"/>
		</g>
	</g>
	<g class="st1">
		<g>
			<path class="st2" d="M467.8,230.8c3.2,0,3.2-5,0-5C464.6,225.8,464.6,230.8,467.8,230.8L467.8,230.8z"/>
		</g>
	</g>
	<g class="st1">
		<g>
			<path class="st2" d="M458.1,243.8c3.2,0,3.2-5,0-5C454.8,238.8,454.8,243.8,458.1,243.8L458.1,243.8z"/>
		</g>
	</g>
	<g class="st1">
		<g>
			<path class="st2" d="M484.1,243c3.2,0,3.2-5,0-5S480.9,243,484.1,243L484.1,243z"/>
		</g>
	</g>
	<g class="st1">
		<g>
			<path class="st2" d="M541.8,221.1c3.2,0,3.2-5,0-5S538.6,221.1,541.8,221.1L541.8,221.1z"/>
		</g>
	</g>
	<g class="st1">
		<g>
			<path class="st2" d="M536.9,255.2c3.2,0,3.2-5,0-5S533.7,255.2,536.9,255.2L536.9,255.2z"/>
		</g>
	</g>
	<g class="st1">
		<g>
			<path class="st2" d="M532,272.3c3.2,0,3.2-5,0-5S528.8,272.3,532,272.3L532,272.3z"/>
		</g>
	</g>
	<g class="st1">
		<g>
			<path class="st2" d="M528.8,284.5c3.2,0,3.2-5,0-5S525.6,284.5,528.8,284.5L528.8,284.5z"/>
		</g>
	</g>
	<g class="st1">
		<g>
			<path class="st2" d="M585.7,239c3.2,0,3.2-5,0-5S582.5,239,585.7,239L585.7,239z"/>
		</g>
	</g>
	<g class="st1">
		<g>
			<path class="st2" d="M593.8,243c3.2,0,3.2-5,0-5S590.6,243,593.8,243L593.8,243z"/>
		</g>
	</g>
	<g class="st1">
		<g>
			<path class="st2" d="M604.4,252.8c3.2,0,3.2-5,0-5S601.2,252.8,604.4,252.8L604.4,252.8z"/>
		</g>
	</g>
	<g class="st1">
		<g>
			<path class="st2" d="M597.1,213c3.2,0,3.2-5,0-5C593.9,208,593.9,213,597.1,213L597.1,213z"/>
		</g>
	</g>
	<g class="st1">
		<g>
			<path class="st2" d="M637.7,190.2c3.2,0,3.2-5,0-5S634.5,190.2,637.7,190.2L637.7,190.2z"/>
		</g>
	</g>
	<g class="st1">
		<g>
			<path class="st2" d="M647.5,184.5c3.2,0,3.2-5,0-5S644.3,184.5,647.5,184.5L647.5,184.5z"/>
		</g>
	</g>
	<g class="st1">
		<g>
			<path class="st2" d="M647.5,184.5c3.2,0,3.2-5,0-5S644.3,184.5,647.5,184.5L647.5,184.5z"/>
		</g>
	</g>
	<g class="st1">
		<g>
			<path class="st2" d="M552.4,90.2c3.2,0,3.2-5,0-5S549.2,90.2,552.4,90.2L552.4,90.2z"/>
		</g>
	</g>
	<g class="st1">
		<g>
			<path class="st2" d="M559.7,75.6c3.2,0,3.2-5,0-5S556.5,75.6,559.7,75.6L559.7,75.6z"/>
		</g>
	</g>
	<g class="st1">
		<g>
			<path class="st2" d="M697.1,498.3c3.2,0,3.2-5,0-5C693.9,493.3,693.9,498.3,697.1,498.3L697.1,498.3z"/>
		</g>
	</g>
	<g class="st1">
		<g>
			<path class="st2" d="M697.1,498.3c3.2,0,3.2-5,0-5C693.9,493.3,693.9,498.3,697.1,498.3L697.1,498.3z"/>
		</g>
	</g>
	<g class="st1">
		<g>
			<path class="st2" d="M708.5,526c3.2,0,3.2-5,0-5S705.2,526,708.5,526L708.5,526z"/>
		</g>
	</g>
	<g class="st1">
		<g>
			<path class="st2" d="M708.5,526c3.2,0,3.2-5,0-5S705.2,526,708.5,526L708.5,526z"/>
		</g>
	</g>
	<g class="st1">
		<g>
			<path class="st2" d="M722.3,540.6c3.2,0,3.2-5,0-5S719.1,540.6,722.3,540.6L722.3,540.6z"/>
		</g>
	</g>
	<g class="st1">
		<g>
			<path class="st2" d="M627.2,539c3.2,0,3.2-5,0-5S623.9,539,627.2,539L627.2,539z"/>
		</g>
	</g>
	<g class="st1">
		<g>
			<path class="st2" d="M670.3,564.2c3.2,0,3.2-5,0-5C667,559.2,667,564.2,670.3,564.2L670.3,564.2z"/>
		</g>
	</g>
	<g class="st1">
		<g>
			<path class="st2" d="M437.7,552.8c3.2,0,3.2-5,0-5S434.5,552.8,437.7,552.8L437.7,552.8z"/>
		</g>
	</g>
	<g class="st1">
		<g>
			<path class="st2" d="M432,567.4c3.2,0,3.2-5,0-5S428.8,567.4,432,567.4L432,567.4z"/>
		</g>
	</g>
	<g class="st1">
		<g>
			<path class="st2" d="M481.6,593.4c3.2,0,3.2-5,0-5S478.4,593.4,481.6,593.4L481.6,593.4z"/>
		</g>
	</g>
	<g class="st1">
		<g>
			<path class="st2" d="M481.6,593.4c3.2,0,3.2-5,0-5S478.4,593.4,481.6,593.4L481.6,593.4z"/>
		</g>
	</g>
	<g class="st1">
		<g>
			<path class="st2" d="M369.4,578c3.2,0,3.2-5,0-5C366.2,573,366.2,578,369.4,578L369.4,578z"/>
		</g>
	</g>
	<g class="st1">
		<g>
			<path class="st2" d="M363.8,557.7c3.2,0,3.2-5,0-5C360.5,552.7,360.5,557.7,363.8,557.7L363.8,557.7z"/>
		</g>
	</g>
	<g class="st1">
		<g>
			<path class="st2" d="M384.1,516.2c3.2,0,3.2-5,0-5S380.9,516.2,384.1,516.2L384.1,516.2z"/>
		</g>
	</g>
	<g class="st1">
		<g>
			<path class="st2" d="M389.8,508.9c3.2,0,3.2-5,0-5C386.6,503.9,386.5,508.9,389.8,508.9L389.8,508.9z"/>
		</g>
	</g>
	<g class="st1">
		<g>
			<path class="st2" d="M345.9,518.6c3.2,0,3.2-5,0-5C342.7,513.6,342.6,518.6,345.9,518.6L345.9,518.6z"/>
		</g>
	</g>
	<g class="st1">
		<g>
			<path class="st2" d="M296.3,532.5c3.2,0,3.2-5,0-5C293.1,527.5,293.1,532.5,296.3,532.5L296.3,532.5z"/>
		</g>
	</g>
	<g class="st1">
		<g>
			<path class="st2" d="M332,504c3.2,0,3.2-5,0-5S328.8,504,332,504L332,504z"/>
		</g>
	</g>
	<g class="st1">
		<g>
			<path class="st2" d="M172.7,517c3.2,0,3.2-5,0-5S169.5,517,172.7,517L172.7,517z"/>
		</g>
	</g>
	<g class="st1">
		<g>
			<path class="st2" d="M146.7,520.3c3.2,0,3.2-5,0-5S143.5,520.3,146.7,520.3L146.7,520.3z"/>
		</g>
	</g>
	<g class="st1">
		<g>
			<path class="st2" d="M146.7,520.3c3.2,0,3.2-5,0-5S143.5,520.3,146.7,520.3L146.7,520.3z"/>
		</g>
	</g>
	<g class="st1">
		<g>
			<path class="st2" d="M179.2,586.9c3.2,0,3.2-5,0-5S176,586.9,179.2,586.9L179.2,586.9z"/>
		</g>
	</g>
	<g class="st1">
		<g>
			<path class="st2" d="M243.4,601.6c3.2,0,3.2-5,0-5S240.2,601.6,243.4,601.6L243.4,601.6z"/>
		</g>
	</g>
	<g class="st1">
		<g>
			<path class="st2" d="M291.4,598.3c3.2,0,3.2-5,0-5C288.2,593.3,288.2,598.3,291.4,598.3L291.4,598.3z"/>
		</g>
	</g>
	<g class="st1">
		<g>
			<path class="st2" d="M332,609.7c3.2,0,3.2-5,0-5S328.8,609.7,332,609.7L332,609.7z"/>
		</g>
	</g>
	<g class="st1">
		<g>
			<path class="st2" d="M178.4,495.1c3.2,0,3.2-5,0-5S175.2,495.1,178.4,495.1L178.4,495.1z"/>
		</g>
	</g>
	<g class="st1">
		<g>
			<path class="st2" d="M168.6,423.5c3.2,0,3.2-5,0-5C165.4,418.5,165.4,423.5,168.6,423.5L168.6,423.5z"/>
		</g>
	</g>
	<g class="st1">
		<g>
			<path class="st2" d="M157.3,427.6c3.2,0,3.2-5,0-5C154,422.6,154,427.6,157.3,427.6L157.3,427.6z"/>
		</g>
	</g>
	<g class="st1">
		<g>
			<path class="st2" d="M173.5,363.4c3.2,0,3.2-5,0-5S170.3,363.4,173.5,363.4L173.5,363.4z"/>
		</g>
	</g>
	<g class="st1">
		<g>
			<path class="st2" d="M95.5,392.6c3.2,0,3.2-5,0-5C92.2,387.6,92.2,392.6,95.5,392.6L95.5,392.6z"/>
		</g>
	</g>
	<g class="st1">
		<g>
			<path class="st2" d="M81.6,418.6c3.2,0,3.2-5,0-5S78.4,418.6,81.6,418.6L81.6,418.6z"/>
		</g>
	</g>
	<g class="st1">
		<g>
			<path class="st2" d="M81.6,418.6c3.2,0,3.2-5,0-5S78.4,418.6,81.6,418.6L81.6,418.6z"/>
		</g>
	</g>
	<g class="st1">
		<g>
			<path class="st2" d="M34.5,422.7c3.2,0,3.2-5,0-5S31.3,422.7,34.5,422.7L34.5,422.7z"/>
		</g>
	</g>
	<g class="st1">
		<g>
			<path class="st2" d="M60.5,462.5c3.2,0,3.2-5,0-5S57.3,462.5,60.5,462.5L60.5,462.5z"/>
		</g>
	</g>
	<g class="st1">
		<g>
			<path class="st2" d="M49.1,476.4c3.2,0,3.2-5,0-5C45.9,471.4,45.9,476.4,49.1,476.4L49.1,476.4z"/>
		</g>
	</g>
	<g class="st1">
		<g>
			<path class="st2" d="M26.4,541.4c3.2,0,3.2-5,0-5C23.1,536.4,23.1,541.4,26.4,541.4L26.4,541.4z"/>
		</g>
	</g>
	<g class="st1">
		<g>
			<path class="st2" d="M71.9,526.8c3.2,0,3.2-5,0-5C68.7,521.8,68.7,526.8,71.9,526.8L71.9,526.8z"/>
		</g>
	</g>
	<g class="st1">
		<g>
			<path class="st2" d="M58.9,575.6c3.2,0,3.2-5,0-5S55.7,575.6,58.9,575.6L58.9,575.6z"/>
		</g>
	</g>
	<g class="st1">
		<g>
			<path class="st2" d="M49.1,592.6c3.2,0,3.2-5,0-5C45.9,587.6,45.9,592.6,49.1,592.6L49.1,592.6z"/>
		</g>
	</g>
	<g class="st1">
		<g>
			<path class="st2" d="M49.1,592.6c3.2,0,3.2-5,0-5C45.9,587.6,45.9,592.6,49.1,592.6L49.1,592.6z"/>
		</g>
	</g>
	<g class="st1">
		<g>
			<path class="st2" d="M219.9,250.4c3.2,0,3.2-5,0-5C216.6,245.4,216.6,250.4,219.9,250.4L219.9,250.4z"/>
		</g>
	</g>
	<g class="st1">
		<g>
			<path class="st2" d="M290.6,425.2c3.2,0,3.2-5,0-5S287.4,425.2,290.6,425.2L290.6,425.2z"/>
		</g>
	</g>
	<g class="st1">
		<g>
			<path class="st2" d="M281.6,477.2c3.2,0,3.2-5,0-5S278.4,477.2,281.6,477.2L281.6,477.2z"/>
		</g>
	</g>
	<g class="st1">
		<g>
			<path class="st2" d="M351.6,441.4c3.2,0,3.2-5,0-5C348.3,436.4,348.3,441.4,351.6,441.4L351.6,441.4z"/>
		</g>
	</g>
	<g class="st1">
		<g>
			<path class="st2" d="M719,491.8c3.2,0,3.2-5,0-5S715.8,491.8,719,491.8L719,491.8z"/>
		</g>
	</g>
	<g class="st1">
		<g>
			<path class="st2" d="M719,491.8c3.2,0,3.2-5,0-5S715.8,491.8,719,491.8L719,491.8z"/>
		</g>
	</g>
	<g class="st1">
		<g>
			<path class="st2" d="M719,493.5c2.6,0,5.1-2.3,5-5s-2.2-5-5-5c-2.6,0-5.1,2.3-5,5C714.2,491.2,716.2,493.5,719,493.5L719,493.5z"
				/>
		</g>
	</g>
	<g class="st1">
		<g>
			<path class="st2" d="M705.2,426.8c2.6,0,5.1-2.3,5-5s-2.2-5-5-5c-2.6,0-5.1,2.3-5,5S702.4,426.8,705.2,426.8L705.2,426.8z"/>
		</g>
	</g>
	<g class="st1">
		<g>
			<path class="st2" d="M705.2,426.8c2.6,0,5.1-2.3,5-5s-2.2-5-5-5c-2.6,0-5.1,2.3-5,5S702.4,426.8,705.2,426.8L705.2,426.8z"/>
		</g>
	</g>
	<g class="st1">
		<g>
			<path class="st2" d="M49.9,207.3c2.6,0,5.1-2.3,5-5s-2.2-5-5-5c-2.6,0-5.1,2.3-5,5C45.1,205,47.1,207.3,49.9,207.3L49.9,207.3z"
				/>
		</g>
	</g>
	<g class="st1">
		<g>
			<path class="st2" d="M49.9,211.4c2.6,0,5.1-2.3,5-5s-2.2-5-5-5c-2.6,0-5.1,2.3-5,5C45.1,209.1,47.1,211.4,49.9,211.4L49.9,211.4z
				"/>
		</g>
	</g>
	<g class="st1">
		<g>
			<path class="st2" d="M49.9,211.4c2.6,0,5.1-2.3,5-5s-2.2-5-5-5c-2.6,0-5.1,2.3-5,5C45.1,209.1,47.1,211.4,49.9,211.4L49.9,211.4z
				"/>
		</g>
	</g>
	<g class="st1">
		<g>
			<path class="st2" d="M49.9,211.4c2.6,0,5.1-2.3,5-5s-2.2-5-5-5c-2.6,0-5.1,2.3-5,5C45.1,209.1,47.1,211.4,49.9,211.4L49.9,211.4z
				"/>
		</g>
	</g>
	<g class="st1">
		<g>
			<path class="st2" d="M46.7,208.1c2.6,0,5.1-2.3,5-5s-2.2-5-5-5c-2.6,0-5.1,2.3-5,5S43.9,208.1,46.7,208.1L46.7,208.1z"/>
		</g>
	</g>
	<g class="st1">
		<g>
			<path class="st2" d="M349.1,168.3c2.6,0,5.1-2.3,5-5s-2.2-5-5-5c-2.6,0-5.1,2.3-5,5S346.3,168.3,349.1,168.3L349.1,168.3z"/>
		</g>
	</g>
	<g class="st1">
		<g>
			<path class="st2" d="M244.2,295.9c2.6,0,5.1-2.3,5-5s-2.2-5-5-5c-2.6,0-5.1,2.3-5,5C239.4,293.7,241.4,295.9,244.2,295.9
				L244.2,295.9z"/>
		</g>
	</g>
	<g class="st1">
		<g>
			<path class="st2" d="M125.5,469.9c2.6,0,5.1-2.3,5-5s-2.2-5-5-5c-2.6,0-5.1,2.3-5,5C120.7,467.6,122.7,469.9,125.5,469.9
				L125.5,469.9z"/>
		</g>
	</g>
	<g class="st1">
		<g>
			<path class="st2" d="M148.3,526.8c2.6,0,5.1-2.3,5-5s-2.2-5-5-5c-2.6,0-5.1,2.3-5,5C143.4,524.5,145.5,526.8,148.3,526.8
				L148.3,526.8z"/>
		</g>
	</g>
	<g class="st1">
		<g>
			<path class="st2" d="M121.5,570.7c2.6,0,5.1-2.3,5-5s-2.2-5-5-5c-2.6,0-5.1,2.3-5,5S118.7,570.7,121.5,570.7L121.5,570.7z"/>
		</g>
	</g>
	<g class="st1">
		<g>
			<path class="st2" d="M347.5,373.2c2.6,0,5.1-2.3,5-5s-2.2-5-5-5c-2.6,0-5.1,2.3-5,5C342.6,370.9,344.7,373.2,347.5,373.2
				L347.5,373.2z"/>
		</g>
	</g>
	<g class="st1">
		<g>
			<path class="st2" d="M320.7,374.8c2.6,0,5.1-2.3,5-5s-2.2-5-5-5c-2.6,0-5.1,2.3-5,5C315.8,372.5,317.9,374.8,320.7,374.8
				L320.7,374.8z"/>
		</g>
	</g>
	<g class="st1">
		<g>
			<path class="st2" d="M331.2,339.8c2.6,0,5.1-2.3,5-5s-2.2-5-5-5c-2.6,0-5.1,2.3-5,5C326.4,337.6,328.4,339.8,331.2,339.8
				L331.2,339.8z"/>
		</g>
	</g>
	<g class="st1">
		<g>
			<path class="st2" d="M345.9,388.6c2.6,0,5.1-2.3,5-5s-2.2-5-5-5c-2.6,0-5.1,2.3-5,5C341,386.3,343.1,388.6,345.9,388.6
				L345.9,388.6z"/>
		</g>
	</g>
	<g class="st1">
		<g>
			<path class="st2" d="M426.4,379.7c2.6,0,5.1-2.3,5-5s-2.2-5-5-5c-2.6,0-5.1,2.3-5,5C421.5,377.4,423.6,379.7,426.4,379.7
				L426.4,379.7z"/>
		</g>
	</g>
	<g class="st1">
		<g>
			<path class="st2" d="M458.1,364.2c2.6,0,5.1-2.3,5-5s-2.2-5-5-5c-2.6,0-5.1,2.3-5,5C453.2,361.9,455.3,364.2,458.1,364.2
				L458.1,364.2z"/>
		</g>
	</g>
	<g class="st1">
		<g>
			<path class="st2" d="M450.7,403.3c2.6,0,5.1-2.3,5-5s-2.2-5-5-5c-2.6,0-5.1,2.3-5,5C445.9,401,447.9,403.3,450.7,403.3
				L450.7,403.3z"/>
		</g>
	</g>
	<g class="st1">
		<g>
			<path class="st2" d="M397.1,383.7c2.6,0,5.1-2.3,5-5s-2.2-5-5-5c-2.6,0-5.1,2.3-5,5C392.2,381.5,394.3,383.7,397.1,383.7
				L397.1,383.7z"/>
		</g>
	</g>
	<g class="st1">
		<g>
			<path class="st2" d="M671.1,483.7c2.6,0,5.1-2.3,5-5s-2.2-5-5-5c-2.6,0-5.1,2.3-5,5C666.2,481.5,668.3,483.7,671.1,483.7
				L671.1,483.7z"/>
		</g>
	</g>
	<g class="st1">
		<g>
			<path class="st2" d="M493,171.6c2.6,0,5.1-2.3,5-5s-2.2-5-5-5c-2.6,0-5.1,2.3-5,5S490.2,171.6,493,171.6L493,171.6z"/>
		</g>
	</g>
	<g class="st1">
		<g>
			<path class="st2" d="M493,171.6c2.6,0,5.1-2.3,5-5s-2.2-5-5-5c-2.6,0-5.1,2.3-5,5S490.2,171.6,493,171.6L493,171.6z"/>
		</g>
	</g>
	<g class="st1">
		<g>
			<path class="st2" d="M496.3,174.8c2.6,0,5.1-2.3,5-5s-2.2-5-5-5c-2.6,0-5.1,2.3-5,5S493.5,174.8,496.3,174.8L496.3,174.8z"/>
		</g>
	</g>
	<g class="st1">
		<g>
			<path class="st2" d="M496.3,174.8c2.6,0,5.1-2.3,5-5s-2.2-5-5-5c-2.6,0-5.1,2.3-5,5S493.5,174.8,496.3,174.8L496.3,174.8z"/>
		</g>
	</g>
	<g class="st1">
		<g>
			<path class="st2" d="M496.3,174.8c2.6,0,5.1-2.3,5-5s-2.2-5-5-5c-2.6,0-5.1,2.3-5,5S493.5,174.8,496.3,174.8L496.3,174.8z"/>
		</g>
	</g>
	<g class="st1">
		<g>
			<path class="st2" d="M496.3,174.8c2.6,0,5.1-2.3,5-5s-2.2-5-5-5c-2.6,0-5.1,2.3-5,5S493.5,174.8,496.3,174.8L496.3,174.8z"/>
		</g>
	</g>
	<g class="st1">
		<g>
			<path class="st2" d="M493.8,172.4c2.6,0,5.1-2.3,5-5s-2.2-5-5-5c-2.6,0-5.1,2.3-5,5C489,170.1,491,172.4,493.8,172.4L493.8,172.4
				z"/>
		</g>
	</g>
	<g class="st1">
		<g>
			<path class="st2" d="M595.5,75.6c2.6,0,5.1-2.3,5-5s-2.2-5-5-5c-2.6,0-5.1,2.3-5,5C590.6,73.3,592.7,75.6,595.5,75.6L595.5,75.6z
				"/>
		</g>
	</g>
</g>
<g id="big_dipper">
	<path class="st3" d="M188.3,130.7l99.1,40.4c13.3,5.9,16.4,9.8,16.4,9.8l14.5,26.9l12.2,19.5c15.2,23.6,30.3,47.2,45.5,70.8
		l12.1,15.4c-4.2,26.8-8.4,53.7-12.5,80.5l86.9,55.5c11.4,3.3,11.4,3.3,11.4,3.3c12.3-17.3,28.4-40,40.7-57.3"/>
</g>
<g id="big_stars">
	<g>
		<path class="st4" d="M524.4,383.6"/>
		<g>
			<path class="st5" d="M524.4,391.1c9.7,0,9.7-15,0-15S514.7,391.1,524.4,391.1L524.4,391.1z"/>
		</g>
	</g>
	<g>
		<path class="st6" d="M521.1,385.3"/>
		<g>
			<path class="st5" d="M521.1,400.3c7.8,0,15.4-6.9,15-15s-6.6-15-15-15c-7.8,0-15.4,6.9-15,15
				C506.5,393.4,512.7,400.3,521.1,400.3L521.1,400.3z"/>
		</g>
	</g>
	<g>
		<path class="st4" d="M389.1,312.7"/>
		<g>
			<path class="st5" d="M389.1,320.2c9.7,0,9.7-15,0-15S379.4,320.2,389.1,320.2L389.1,320.2z"/>
		</g>
	</g>
	<g>
		<path class="st4" d="M296.2,173.4"/>
		<g>
			<path class="st7" d="M296.2,173.4"/>
		</g>
	</g>
	<g>
		<path class="st4" d="M304.3,165.2"/>
		<g>
			<path class="st7" d="M304.3,165.2"/>
		</g>
	</g>
	<g>
		<path class="st4" d="M304.3,165.2"/>
		<g>
			<path class="st7" d="M304.3,165.2"/>
		</g>
	</g>
	<g>
		<path class="st4" d="M296.2,177.4"/>
		<g>
			<path class="st8" d="M296.2,177.4"/>
		</g>
	</g>
	<g>
		<path class="st4" d="M339.4,243.4"/>
		<g>
			<path class="st5" d="M339.4,255.9c3.2,0,6.6-1.4,8.8-3.7c2.2-2.2,3.8-5.7,3.7-8.8c-0.1-3.2-1.2-6.6-3.7-8.8
				c-2.4-2.2-5.5-3.7-8.8-3.7c-3.2,0-6.6,1.4-8.8,3.7c-2.2,2.2-3.8,5.7-3.7,8.8c0.1,3.2,1.2,6.6,3.7,8.8
				C333,254.5,336,255.9,339.4,255.9L339.4,255.9z"/>
		</g>
	</g>
	<g>
		<path class="st4" d="M186.1,128.5"/>
		<g>
			<path class="st5" d="M186.1,138.5c5.2,0,10.2-4.6,10-10c-0.2-5.4-4.4-10-10-10c-5.2,0-10.2,4.6-10,10
				C176.4,133.9,180.5,138.5,186.1,138.5L186.1,138.5z"/>
		</g>
	</g>
	<g>
		<path class="st4" d="M299.4,175"/>
		<g>
			<path class="st5" d="M299.4,185c5.2,0,10.2-4.6,10-10s-4.4-10-10-10c-5.2,0-10.2,4.6-10,10C289.7,180.4,293.8,185,299.4,185
				L299.4,185z"/>
		</g>
	</g>
	<g>
		<path class="st4" d="M372,389.3"/>
		<g>
			<path class="st5" d="M372,399.3c5.2,0,10.2-4.6,10-10s-4.4-10-10-10c-5.2,0-10.2,4.6-10,10C362.2,394.8,366.4,399.3,372,399.3
				L372,399.3z"/>
		</g>
	</g>
	<g>
		<path class="st4" d="M474.7,455.4"/>
		<g>
			<path class="st5" d="M474.7,465.4c5.2,0,10.2-4.6,10-10s-4.4-10-10-10c-5.2,0-10.2,4.6-10,10
				C464.9,460.8,469.1,465.4,474.7,465.4L474.7,465.4z"/>
		</g>
	</g>
	<polygon class="st6" points="521.1,351.2 519.2,390.6 523.1,390.6 	"/>
	<polygon class="st6" points="521.1,351.2 519.2,390.6 523.1,390.6 	"/>
	<polygon class="st6" points="520.9,356 519,395.4 522.9,395.4 	"/>
	<polygon class="st6" points="521.1,418 523.1,378.5 519.2,378.5 	"/>
	<polygon class="st6" points="555.9,385.3 516.4,383.3 516.4,387.2 	"/>
	<polygon class="st6" points="485,385.6 524.4,387.6 524.4,383.6 	"/>
	<polygon class="st6" points="539.5,366.7 511.4,394.4 514.2,397.1 	"/>
	<polygon class="st6" points="506.4,407 531.6,376.6 528.4,374.2 	"/>
	<polygon class="st6" points="502.9,366.5 529.1,396 531.9,393.3 	"/>
	<polygon class="st6" points="539.3,403.6 513.1,374.1 510.3,376.8 	"/>
	<g>
		<polygon class="st6" points="475.1,435.9 474,458.3 476.2,458.3 		"/>
		<polygon class="st6" points="475.1,473.9 476.2,451.4 474,451.4 		"/>
		<polygon class="st6" points="494.8,455.3 472.4,454.2 472.4,456.4 		"/>
		<polygon class="st6" points="454.6,455.5 476.9,456.6 476.9,454.3 		"/>
		<polygon class="st6" points="485.5,444.7 469.5,460.5 471.2,462 		"/>
		<polygon class="st6" points="466.7,467.6 481,450.3 479.2,449 		"/>
		<polygon class="st6" points="464.7,444.6 479.6,461.4 481.2,459.8 		"/>
		<polygon class="st6" points="485.4,465.7 470.5,448.9 468.9,450.5 		"/>
	</g>
	<polygon class="st6" points="371.4,366.2 370.1,391.4 372.6,391.4 	"/>
	<polygon class="st6" points="371.4,408.9 372.6,383.7 370.1,383.7 	"/>
	<polygon class="st6" points="393.5,388 368.4,386.7 368.4,389.2 	"/>
	<polygon class="st6" points="348.3,388.2 373.4,389.5 373.4,387 	"/>
	<polygon class="st6" points="383.1,376.1 365.1,393.9 367,395.5 	"/>
	<polygon class="st6" points="362,401.9 378,382.4 376,380.9 	"/>
	<polygon class="st6" points="359.7,376 376.4,394.9 378.2,393.1 	"/>
	<polygon class="st6" points="382.9,399.7 366.2,380.8 364.5,382.6 	"/>
	<polygon class="st6" points="389.2,300.1 388.2,315 390.1,315 	"/>
	<polygon class="st6" points="389.2,325.4 390.1,310.4 388.2,310.4 	"/>
	<polygon class="st6" points="405.3,313 387,312.2 387,313.7 	"/>
	<polygon class="st6" points="372.4,313.1 390.7,313.8 390.7,312.4 	"/>
	<polygon class="st6" points="397.7,305.9 384.6,316.4 386,317.5 	"/>
	<polygon class="st6" points="382.3,321.2 394,309.7 392.6,308.8 	"/>
	<polygon class="st6" points="380.7,305.9 392.8,317 394.1,316 	"/>
	<polygon class="st6" points="397.6,319.9 385.4,308.7 384.1,309.8 	"/>
	<polygon class="st6" points="339.3,213.3 337.6,247.4 340.9,247.4 	"/>
	<polygon class="st6" points="339.3,271 340.9,237 337.6,237 	"/>
	<polygon class="st6" points="368.4,242.8 335.3,241.1 335.3,244.4 	"/>
	<polygon class="st6" points="308.9,243 342,244.7 342,241.3 	"/>
	<polygon class="st6" points="354.6,226.7 331.1,250.7 333.5,252.9 	"/>
	<polygon class="st6" points="326.9,261.5 348,235.3 345.4,233.2 	"/>
	<polygon class="st6" points="324,226.5 345.9,252 348.3,249.7 	"/>
	<polygon class="st6" points="354.5,258.6 332.5,233.1 330.2,235.5 	"/>
	<polygon class="st6" points="299.8,156.8 298.7,178.3 300.9,178.3 	"/>
	<polygon class="st6" points="299.8,193.2 300.9,171.7 298.7,171.7 	"/>
	<polygon class="st6" points="319.1,175.4 297.2,174.3 297.2,176.4 	"/>
	<polygon class="st6" points="279.7,175.5 301.6,176.6 301.6,174.5 	"/>
	<polygon class="st6" points="310,165.3 294.4,180.4 296,181.8 	"/>
	<polygon class="st6" points="291.6,187.2 305.6,170.6 303.9,169.4 	"/>
	<polygon class="st6" points="289.7,165.1 304.2,181.2 305.8,179.7 	"/>
	<polygon class="st6" points="309.9,185.3 295.4,169.3 293.8,170.8 	"/>
	<polygon class="st6" points="186.6,107.4 185.3,133.6 187.9,133.6 	"/>
	<polygon class="st6" points="186.6,151.9 187.9,125.6 185.3,125.6 	"/>
	<polygon class="st6" points="209.1,130.1 183.6,128.8 183.6,131.4 	"/>
	<polygon class="st6" points="163.2,130.3 188.7,131.6 188.7,129 	"/>
	<polygon class="st6" points="198.5,117.7 180.3,136.2 182.2,138 	"/>
	<polygon class="st6" points="177.1,144.5 193.4,124.3 191.3,122.7 	"/>
	<polygon class="st6" points="174.8,117.6 191.7,137.2 193.6,135.4 	"/>
	<polygon class="st6" points="198.3,142.3 181.4,122.6 179.6,124.5 	"/>
</g>
</svg>
