<?xml version="1.0" encoding="utf-8"?>
<!-- Generator: Adobe Illustrator 24.0.1, SVG Export Plug-In . SVG Version: 6.00 Build 0)  -->
<svg version="1.1" id="Layer_1" xmlns="http://www.w3.org/2000/svg" xmlns:xlink="http://www.w3.org/1999/xlink" x="0px" y="0px"
	 viewBox="0 0 792 612" style="enable-background:new 0 0 792 612;" xml:space="preserve">
<style type="text/css">
	.st0{fill:none;stroke:#0081B0;stroke-width:2;stroke-miterlimit:10;}
	.st1{fill:#C1C1C0;}
	.st2{fill:#3D4AA3;}
	.st3{fill:#C1C1BF;}
</style>
<g id="big_dipper">
	<path class="st0" d="M185.1,129.3l99.1,40.4c13.3,5.9,16.4,9.8,16.4,9.8l14.5,26.9l12.2,19.5c15.2,23.6,30.3,47.2,45.5,70.8
		l12.1,15.4c-4.2,26.8-8.4,53.7-12.5,80.5l86.9,55.5c11.4,3.3,11.4,3.3,11.4,3.3c12.3-17.3,28.4-40,40.7-57.3"/>
</g>
<g id="star1">
	<g>
		<path class="st1" d="M521.2,400.6c7.8,0,15.4-6.9,15-15s-6.6-15-15-15c-7.8,0-15.4,6.9-15,15C506.6,393.7,512.8,400.6,521.2,400.6
			L521.2,400.6z"/>
	</g>
</g>
<g id="star5">
	<path class="st2" d="M339.5,243.7"/>
	<g>
		<path class="st1" d="M339.5,256.2c3.2,0,6.6-1.4,8.8-3.7c2.2-2.2,3.8-5.7,3.7-8.8c-0.1-3.2-1.2-6.6-3.7-8.8
			c-2.4-2.2-5.5-3.7-8.8-3.7c-3.2,0-6.6,1.4-8.8,3.7c-2.2,2.2-3.8,5.7-3.7,8.8c0.1,3.2,1.2,6.6,3.7,8.8
			C333.1,254.8,336.1,256.2,339.5,256.2L339.5,256.2z"/>
	</g>
</g>
<g id="star7">
	<g>
		<path class="st1" d="M186.2,138.8c5.2,0,10.2-4.6,10-10c-0.2-5.4-4.4-10-10-10c-5.2,0-10.2,4.6-10,10
			C176.5,134.2,180.6,138.8,186.2,138.8L186.2,138.8z"/>
	</g>
</g>
<g id="stare6">
	<path class="st2" d="M299.5,175.3"/>
	<g>
		<path class="st1" d="M299.5,185.3c5.2,0,10.2-4.6,10-10s-4.4-10-10-10c-5.2,0-10.2,4.6-10,10C289.8,180.7,293.9,185.3,299.5,185.3
			L299.5,185.3z"/>
	</g>
</g>
<g id="star3">
	<g>
		<path class="st1" d="M372.1,399.6c5.2,0,10.2-4.6,10-10s-4.4-10-10-10c-5.2,0-10.2,4.6-10,10C362.3,395.1,366.5,399.6,372.1,399.6
			L372.1,399.6z"/>
	</g>
</g>
<g id="stare2">
	<g>
		<path class="st1" d="M471.7,461.1c5.2,0,10.2-4.6,10-10s-4.4-10-10-10c-5.2,0-10.2,4.6-10,10C461.9,456.5,466.1,461.1,471.7,461.1
			L471.7,461.1z"/>
	</g>
</g>
<polygon class="st3" points="521.2,351.5 519.3,390.9 523.2,390.9 "/>
<polygon class="st3" points="521.2,351.5 519.3,390.9 523.2,390.9 "/>
<polygon class="st3" points="521,356.3 519.1,395.7 523,395.7 "/>
<polygon class="st3" points="521.2,418.3 523.2,378.8 519.3,378.8 "/>
<polygon class="st3" points="556,385.6 516.5,383.6 516.5,387.5 "/>
<polygon class="st3" points="485.1,385.9 524.5,387.9 524.5,383.9 "/>
<polygon class="st3" points="539.6,367 511.5,394.7 514.3,397.4 "/>
<polygon class="st3" points="506.5,407.3 531.7,376.9 528.5,374.5 "/>
<polygon class="st3" points="503,366.8 529.2,396.3 532,393.6 "/>
<polygon class="st3" points="539.4,403.9 513.2,374.4 510.4,377.1 "/>
<g>
	<polygon class="st3" points="472.9,432.7 471.8,455.1 474,455.1 	"/>
	<polygon class="st3" points="472.9,470.7 474,448.2 471.8,448.2 	"/>
	<polygon class="st3" points="492.6,452.1 470.2,451 470.2,453.2 	"/>
	<polygon class="st3" points="452.4,452.3 474.7,453.4 474.7,451.1 	"/>
	<polygon class="st3" points="483.3,441.5 467.3,457.3 469,458.8 	"/>
	<polygon class="st3" points="464.5,464.4 478.8,447.1 477,445.8 	"/>
	<polygon class="st3" points="462.5,441.4 477.4,458.2 479,456.6 	"/>
	<polygon class="st3" points="483.2,462.5 468.3,445.7 466.7,447.3 	"/>
</g>
<polygon class="st3" points="371.5,366.5 370.2,391.7 372.7,391.7 "/>
<polygon class="st3" points="371.5,409.2 372.7,384 370.2,384 "/>
<polygon class="st3" points="393.6,388.3 368.5,387 368.5,389.5 "/>
<polygon class="st3" points="348.4,388.5 373.5,389.8 373.5,387.3 "/>
<polygon class="st3" points="383.2,376.4 365.2,394.2 367.1,395.8 "/>
<polygon class="st3" points="362.1,402.2 378.1,382.7 376.1,381.2 "/>
<polygon class="st3" points="359.8,376.3 376.5,395.2 378.3,393.4 "/>
<polygon class="st3" points="383,400 366.3,381.1 364.6,382.9 "/>
<path class="st3" d="M390.8,317.7c0.8-1.3,1.2-2.8,1.3-4.3l7.3-0.3l-7.3-0.3c-0.1-1.5-0.5-2.9-1.4-4.1l2.4-2.3l-2.6,2
	c-1.1-1.5-2.9-2.5-5.2-2.6l-0.4-6.4l-0.4,6.4c-2.5,0.1-4.4,1.2-5.5,2.9l-3.2-2.3l3,2.6c-0.7,1.1-1.1,2.5-1.2,3.8l-4.8,0.2l4.8,0.2
	c0,2,0.7,4.1,2.1,5.5l-2.1,2.4l2.3-2.1c1.1,1.1,2.7,1.7,4.7,1.8l0.4,5.5l0.3-5.5c2.5-0.1,4.3-1.2,5.5-2.8l2.3,1.6L390.8,317.7z"/>
<polygon class="st3" points="339.4,213.6 337.7,247.7 341,247.7 "/>
<polygon class="st3" points="339.4,271.3 341,237.3 337.7,237.3 "/>
<polygon class="st3" points="368.5,243.1 335.4,241.4 335.4,244.7 "/>
<polygon class="st3" points="309,243.3 342.1,245 342.1,241.6 "/>
<polygon class="st3" points="354.7,227 331.2,251 333.6,253.2 "/>
<polygon class="st3" points="327,261.8 348.1,235.6 345.5,233.5 "/>
<polygon class="st3" points="324.1,226.8 346,252.3 348.4,250 "/>
<polygon class="st3" points="354.6,258.9 332.6,233.4 330.3,235.8 "/>
<polygon class="st3" points="299.9,157.1 298.8,178.6 301,178.6 "/>
<polygon class="st3" points="299.9,193.5 301,172 298.8,172 "/>
<polygon class="st3" points="319.2,175.7 297.3,174.6 297.3,176.7 "/>
<polygon class="st3" points="279.8,175.8 301.7,176.9 301.7,174.8 "/>
<polygon class="st3" points="310.1,165.6 294.5,180.7 296.1,182.1 "/>
<polygon class="st3" points="291.7,187.5 305.7,170.9 304,169.7 "/>
<polygon class="st3" points="289.8,165.4 304.3,181.5 305.9,180 "/>
<polygon class="st3" points="310,185.6 295.5,169.6 293.9,171.1 "/>
<polygon class="st3" points="186.7,107.7 185.4,133.9 188,133.9 "/>
<polygon class="st3" points="186.7,152.2 188,125.9 185.4,125.9 "/>
<polygon class="st3" points="209.2,130.4 183.7,129.1 183.7,131.7 "/>
<polygon class="st3" points="163.3,130.6 188.8,131.9 188.8,129.3 "/>
<polygon class="st3" points="198.6,118 180.4,136.5 182.3,138.3 "/>
<polygon class="st3" points="177.2,144.8 193.5,124.6 191.4,123 "/>
<polygon class="st3" points="174.9,117.9 191.8,137.5 193.7,135.7 "/>
<polygon class="st3" points="198.4,142.6 181.5,122.9 179.7,124.8 "/>
</svg>
