<?xml version="1.0" encoding="utf-8"?>
<!-- Generator: Adobe Illustrator 24.0.1, SVG Export Plug-In . SVG Version: 6.00 Build 0)  -->
<svg version="1.1" id="Layer_1" xmlns="http://www.w3.org/2000/svg" xmlns:xlink="http://www.w3.org/1999/xlink" x="0px" y="0px"
	 viewBox="0 0 200 100" style="enable-background:new 0 0 200 100;" xml:space="preserve">
<style type="text/css">
	.st0{fill:#FFFFFF;stroke:#000000;stroke-width:0.7084;stroke-miterlimit:10;}
	.st1{fill:none;stroke:#000000;stroke-width:1.5241;stroke-miterlimit:10;}
	.st2{font-family:'SulphurPoint-Bold';}
	.st3{font-size:39.3282px;}
	.st4{font-size:39.2926px;}
</style>
<g>
	<path class="st0" d="M191.17,99.62H8.81c-4.68,0-8.5-3.83-8.5-8.5V8.91c0-4.68,3.83-8.5,8.5-8.5h182.36c4.68,0,8.5,3.83,8.5,8.5
		v82.21C199.67,95.8,195.84,99.62,191.17,99.62z"/>
	<g>
		<g>
			<path d="M122.17,67.96c1.99,0,3.9-1.75,3.81-3.81c-0.09-2.06-1.67-3.81-3.81-3.81c-1.99,0-3.9,1.75-3.81,3.81
				C118.45,66.21,120.03,67.96,122.17,67.96L122.17,67.96z"/>
		</g>
	</g>
	<g>
		<g>
			<path d="M108.84,92.36c1.99,0,3.9-1.75,3.81-3.81c-0.09-2.06-1.67-3.81-3.81-3.81c-1.99,0-3.9,1.75-3.81,3.81
				C105.12,90.62,106.71,92.36,108.84,92.36L108.84,92.36z"/>
		</g>
	</g>
	<g>
		<g>
			<path d="M71.54,77.54c1.99,0,3.9-1.75,3.81-3.81c-0.09-2.06-1.67-3.81-3.81-3.81c-1.99,0-3.9,1.75-3.81,3.81
				C67.82,75.8,69.4,77.54,71.54,77.54L71.54,77.54z"/>
		</g>
	</g>
	<g>
		<g>
			<path d="M74.2,53.14c1.99,0,3.9-1.75,3.81-3.81c-0.09-2.06-1.67-3.81-3.81-3.81c-1.99,0-3.9,1.75-3.81,3.81
				C70.48,51.39,72.07,53.14,74.2,53.14L74.2,53.14z"/>
		</g>
	</g>
	<g>
		<g>
			<path d="M54.22,34.83c1.99,0,3.9-1.75,3.81-3.81c-0.09-2.06-1.67-3.81-3.81-3.81c-1.99,0-3.9,1.75-3.81,3.81
				C50.5,33.09,52.08,34.83,54.22,34.83L54.22,34.83z"/>
		</g>
	</g>
	<g>
		<g>
			<path d="M39.56,17.4c1.99,0,3.9-1.75,3.81-3.81c-0.09-2.06-1.67-3.81-3.81-3.81c-1.99,0-3.9,1.75-3.81,3.81
				C35.84,15.65,37.42,17.4,39.56,17.4L39.56,17.4z"/>
		</g>
	</g>
	<g>
		<g>
			<path d="M7.58,12.17c1.99,0,3.9-1.75,3.81-3.81C11.3,6.29,9.72,4.55,7.58,4.55c-1.99,0-3.9,1.75-3.81,3.81
				C3.87,10.42,5.45,12.17,7.58,12.17L7.58,12.17z"/>
		</g>
	</g>
	<polygon class="st1" points="74.2,49.33 122.17,64.15 108.84,88.55 71.54,73.73 	"/>
	<polyline class="st1" points="7.58,8.36 39.56,13.59 54.22,31.02 74.2,49.33 	"/>
	<text transform="matrix(1.0351 0 0 1 43.5566 83.9492)" class="st2 st3">C</text>
	<text transform="matrix(0.5641 0 0 1 126.1621 83.959)" class="st2 st4">nstellar</text>
</g>
</svg>
