<svg id="Layer_1" data-name="Layer 1" xmlns="http://www.w3.org/2000/svg" viewBox="0 0 180.01 73.78"><defs><style>.cls-1,.cls-4,.cls-6{fill:#d4402e;}.cls-1,.cls-2,.cls-3,.cls-5,.cls-6{stroke:#d4402e;stroke-miterlimit:10;}.cls-1{stroke-width:0.65px;}.cls-2,.cls-3,.cls-5{fill:none;}.cls-2{stroke-width:1.2px;}.cls-3{stroke-width:1.23px;}.cls-4,.cls-5{isolation:isolate;font-size:41.45px;font-family:SulphurPoint-Bold, Sulphur Point;font-weight:700;}.cls-5{stroke-width:0.77px;}.cls-6{stroke-width:0.77px;}</style></defs><title>logoorange</title><path class="cls-1" d="M102.19,48.82A3.26,3.26,0,1,0,99,45.56a3.3,3.3,0,0,0,3.23,3.26Z" transform="translate(0.01 -0.6)"/><path class="cls-1" d="M90,67.39a3.26,3.26,0,1,0-3.23-3.26A3.34,3.34,0,0,0,90,67.39Z" transform="translate(0.01 -0.6)"/><path class="cls-1" d="M60.55,56.31a3.26,3.26,0,1,0-3.24-3.26,3.35,3.35,0,0,0,3.24,3.26Z" transform="translate(0.01 -0.6)"/><path class="cls-1" d="M63.14,38.07a3.26,3.26,0,1,0-3.24-3.26,3.35,3.35,0,0,0,3.24,3.26Z" transform="translate(0.01 -0.6)"/><path class="cls-1" d="M45.65,24.38a3.26,3.26,0,1,0-3.23-3.26,3.34,3.34,0,0,0,3.23,3.26Z" transform="translate(0.01 -0.6)"/><path class="cls-1" d="M31.41,11.35a3.26,3.26,0,1,0-3.24-3.26,3.34,3.34,0,0,0,3.24,3.26Z" transform="translate(0.01 -0.6)"/><path class="cls-1" d="M3.56,7.44A3.31,3.31,0,0,0,6.8,4.18,3.31,3.31,0,0,0,3.56.93,3.29,3.29,0,0,0,.32,4.18,3.34,3.34,0,0,0,3.56,7.44Z" transform="translate(0.01 -0.6)"/><polygon class="cls-2" points="62.7 34.21 102.2 45.28 91.26 63.53 60.49 52.45 62.7 34.21"/><polyline class="cls-3" points="4.79 3.58 32.84 7.49 45.66 20.52 63.21 34.21"/><text class="cls-4" transform="translate(32.08 64.57) scale(0.95 1)">C</text><text class="cls-5" transform="translate(32.08 64.57) scale(0.95 1)">C</text><path class="cls-6" d="M115.92,65.37V52.86a7.22,7.22,0,0,0-.71-3.26c-.45-.91-1-1.37-1.68-1.37s-1.23.46-1.69,1.37a6.88,6.88,0,0,0-.51,1.5,8.05,8.05,0,0,0-.2,1.76V65.37h-1.88V45h1.88v1.7a4,4,0,0,1,1.1-1.57,2.25,2.25,0,0,1,1.3-.65,2.39,2.39,0,0,1,1.62.65,5.79,5.79,0,0,1,1.36,1.83,9.74,9.74,0,0,1,.9,2.67,16.82,16.82,0,0,1,.33,3.26V65.37Z" transform="translate(0.01 -0.6)"/><path class="cls-6" d="M125.57,49.34A1.63,1.63,0,0,0,124,48a1.34,1.34,0,0,0-1,.26,1.56,1.56,0,0,0-.64,1,4.3,4.3,0,0,0-.2,1.37,4.79,4.79,0,0,0,.33,1.69,1.42,1.42,0,0,0,1.16.85,5.37,5.37,0,0,1,2.33.65,3.53,3.53,0,0,1,1.36,1.89,11.53,11.53,0,0,1,.46,3.78,8.64,8.64,0,0,1-1,4.23,6.42,6.42,0,0,1-1.1,1.44,1.84,1.84,0,0,1-1.29.52h-.33a3.19,3.19,0,0,1-2.78-1.89,11.55,11.55,0,0,1-1.1-4.37h1.94A3.79,3.79,0,0,0,122.6,61a1.51,1.51,0,0,0,1.36.91.53.53,0,0,0,.32-.06,1.49,1.49,0,0,0,1.16-.78,3.8,3.8,0,0,0,.46-1.83,2.8,2.8,0,0,0-.46-2,2.5,2.5,0,0,0-1.81-.46c-1.16,0-2-.72-2.59-2.08a9.23,9.23,0,0,1-.71-4v-.85a8.7,8.7,0,0,1,1.16-4.17,2.91,2.91,0,0,1,2.59-1.43,2.75,2.75,0,0,1,2.08,1,7.89,7.89,0,0,1,1.1,2.09,19.31,19.31,0,0,1,.58,3.32l-.06.07H126A12.31,12.31,0,0,1,125.57,49.34Z" transform="translate(0.01 -0.6)"/><path class="cls-6" d="M133.61,48.29V65.43h-1.82V48.29h-1.62V44.52h1.62V37.61h1.82v6.91h1.61v3.77Z" transform="translate(0.01 -0.6)"/><path class="cls-6" d="M139,56.57a6.14,6.14,0,0,0,.39,2.08,8.27,8.27,0,0,0,.84,1.83,2.53,2.53,0,0,0,2.14,1.37c1.29,0,2.33-1.18,3.11-3.59l1.62,1.89a11.09,11.09,0,0,1-2.08,4,3.54,3.54,0,0,1-2.72,1.44,3.26,3.26,0,0,1-2.07-.79,7.22,7.22,0,0,1-1.75-2.28,12.1,12.1,0,0,1-1.16-3.38,20.36,20.36,0,0,1-.39-4,19.71,19.71,0,0,1,.39-4,12.17,12.17,0,0,1,1.16-3.39,7,7,0,0,1,1.75-2.28,3.15,3.15,0,0,1,4.15,0,7.2,7.2,0,0,1,1.74,2.28,16.36,16.36,0,0,1,1.62,7.36,13.56,13.56,0,0,1-.06,1.56L139,56.57Zm1.68-7.82a6.07,6.07,0,0,0-1.23,2,7.15,7.15,0,0,0-.45,2.6h6.74a7,7,0,0,0-.46-2.6,4.78,4.78,0,0,0-1.23-2,2.66,2.66,0,0,0-1.68-.78A2.41,2.41,0,0,0,140.66,48.75Z" transform="translate(0.01 -0.6)"/><path class="cls-6" d="M150.38,65.37V37.61h1.75V65.37Z" transform="translate(0.01 -0.6)"/><path class="cls-6" d="M154.91,65.37V37.61h1.75V65.37Z" transform="translate(0.01 -0.6)"/><path class="cls-6" d="M168.12,65.37v-3.2a7.77,7.77,0,0,1-1.61,2.48,2.72,2.72,0,0,1-1.95.91,3.18,3.18,0,0,1-2.07-.78,7.22,7.22,0,0,1-1.75-2.28,12,12,0,0,1-1.16-3.39,20.73,20.73,0,0,1-.39-4,19.85,19.85,0,0,1,.39-4,12,12,0,0,1,1.16-3.39,8.27,8.27,0,0,1,1.75-2.28,3.3,3.3,0,0,1,2.07-.78,2.65,2.65,0,0,1,1.95.85,8.14,8.14,0,0,1,1.55,2.34V45H170V65.43l-1.88-.06Zm-4.85-16.55a3.41,3.41,0,0,0-1.1,1.43,6.76,6.76,0,0,0-.72,2.21,17.77,17.77,0,0,0-.26,2.68,11.29,11.29,0,0,0,.26,2.6,14.21,14.21,0,0,0,.72,2.15,5.14,5.14,0,0,0,1.1,1.44,2.39,2.39,0,0,0,1.36.52,2.44,2.44,0,0,0,1.36-.52,4.36,4.36,0,0,0,1.1-1.44,7.06,7.06,0,0,0,.71-2.15,16,16,0,0,0,.26-2.6,11.78,11.78,0,0,0-.26-2.68,14.38,14.38,0,0,0-.71-2.21,5.13,5.13,0,0,0-1.1-1.43,2.38,2.38,0,0,0-1.36-.53A2.33,2.33,0,0,0,163.27,48.82Z" transform="translate(0.01 -0.6)"/><path class="cls-6" d="M177.71,48.56a1.32,1.32,0,0,0-.91-.46c-.58,0-1,.39-1.42,1.17a6.88,6.88,0,0,0-.58,2.87V65.43h-1.88V52.14A13.65,13.65,0,0,1,173.5,48a7.16,7.16,0,0,1,1.62-2.93,2.61,2.61,0,0,1,1.68-.71,2.32,2.32,0,0,1,1.36.52,4.85,4.85,0,0,1,1.36,1.63Z" transform="translate(0.01 -0.6)"/></svg>