<svg id="Layer_1" data-name="Layer 1" xmlns="http://www.w3.org/2000/svg" viewBox="0 0 100 89.23"><defs><style>.cls-1{fill:#fedb2e;}.cls-2{fill:#faa41a;}.cls-3{fill:#822321;}.cls-4,.cls-6{fill:#d4402b;}.cls-5{fill:#891f1b;}.cls-6{font-size:18.42px;font-family:SulphurPoint-Regular, Sulphur Point;}.cls-7{letter-spacing:-0.05em;}.cls-8{letter-spacing:-0.1em;}.cls-9{letter-spacing:-0.02em;}</style></defs><title>Untitled-3</title><path class="cls-1" d="M34.17,40,4.09,29.2A6.51,6.51,0,0,1,.32,21.08h0a6,6,0,0,1,7.63-4L38,27.89A6.53,6.53,0,0,1,41.8,36h0A6,6,0,0,1,34.17,40Z" transform="translate(0 -7.1)"/><path class="cls-2" d="M43.36,55.93,13.28,45.11A6.52,6.52,0,0,1,9.51,37h0a6,6,0,0,1,7.63-4L47.22,43.81A6.52,6.52,0,0,1,51,51.92h0A6,6,0,0,1,43.36,55.93Z" transform="translate(0 -7.1)"/><path class="cls-2" d="M50.15,33.35,20.07,22.53a6.53,6.53,0,0,1-3.77-8.12h0a6,6,0,0,1,7.63-4L54,21.22a6.53,6.53,0,0,1,3.77,8.12h0A6,6,0,0,1,50.15,33.35Z" transform="translate(0 -7.1)"/><path class="cls-3" d="M75.79,30.38,45.72,19.56a6.52,6.52,0,0,1-3.78-8.11h0a6,6,0,0,1,7.64-4L79.65,18.25a6.53,6.53,0,0,1,3.78,8.12h0A6,6,0,0,1,75.79,30.38Z" transform="translate(0 -7.1)"/><path class="cls-3" d="M52.88,46.81,22.81,36A6.52,6.52,0,0,1,19,27.88h0a6,6,0,0,1,7.64-4L56.74,34.68a6.53,6.53,0,0,1,3.78,8.12h0A6,6,0,0,1,52.88,46.81Z" transform="translate(0 -7.1)"/><path class="cls-3" d="M61.74,74.5,31.67,63.69a6.53,6.53,0,0,1-3.78-8.12h0a6,6,0,0,1,7.64-4L65.6,62.38a6.52,6.52,0,0,1,3.78,8.11h0A6,6,0,0,1,61.74,74.5Z" transform="translate(0 -7.1)"/><path class="cls-3" d="M98.52,46c0,16.47-13,29.82-28.94,29.82A27.92,27.92,0,0,1,62.71,75c-.64-.16-1.26-.34-1.88-.54,0,0,0,0-.06,0A29.45,29.45,0,0,1,41.71,54.09a30.65,30.65,0,0,1-.86-11.61,20.42,20.42,0,0,1,.32-2.1,29.06,29.06,0,0,1,3.26-9.08c.14-.29.31-.58.48-.87A29.91,29.91,0,0,1,52.45,22h0c.37-.27.73-.54,1.11-.79a28.17,28.17,0,0,1,16-5,27.41,27.41,0,0,1,6.5.77h0a27.67,27.67,0,0,1,3.69,1.15c.57.22,1.15.46,1.71.72a28.72,28.72,0,0,1,8.1,5.65,5.33,5.33,0,0,0-.82,2.87,5.1,5.1,0,0,0,4.08,5.1,4.52,4.52,0,0,0,2.26.6h.39l.21.21A30.12,30.12,0,0,1,98.52,46Z" transform="translate(0 -7.1)"/><path class="cls-4" d="M100,46.57C100,63,87,76.39,71.06,76.39a28.1,28.1,0,0,1-10.23-1.92s0,0-.06,0A29.51,29.51,0,0,1,43.19,54.62,30,30,0,0,1,42.33,43a18,18,0,0,1,.32-2.1,29.2,29.2,0,0,1,3.26-9.09,9.26,9.26,0,0,1,.48-.86,29.87,29.87,0,0,1,7.53-8.45h0c.36-.28.73-.54,1.11-.79a28.15,28.15,0,0,1,16-5,27.84,27.84,0,0,1,6.49.76l0,0a21.32,21.32,0,0,1,2.21.62A28.54,28.54,0,0,1,91.08,25a5.47,5.47,0,0,0-.81,2.88,5.2,5.2,0,0,0,2.6,4.57,4.52,4.52,0,0,0,2.26.6h.39a4.77,4.77,0,0,0,1.2-.28A30.27,30.27,0,0,1,100,46.57Z" transform="translate(0 -7.1)"/><ellipse class="cls-5" cx="72.75" cy="54.48" rx="4.86" ry="5.17"/><text class="cls-6" transform="translate(0 85.1) scale(0.9 1)">WISHING <tspan class="cls-7" x="75.01" y="0">S</tspan><tspan class="cls-8" x="83.96" y="0">T</tspan><tspan class="cls-9" x="91.15" y="0">A</tspan><tspan x="102.42" y="0">R</tspan></text></svg>