<?xml version="1.0" encoding="utf-8"?>
<!-- Generator: Adobe Illustrator 24.0.1, SVG Export Plug-In . SVG Version: 6.00 Build 0)  -->
<svg version="1.1" id="Layer_1" xmlns="http://www.w3.org/2000/svg" xmlns:xlink="http://www.w3.org/1999/xlink" x="0px" y="0px"
	 viewBox="0 0 200 100" style="enable-background:new 0 0 200 100;" xml:space="preserve">
<style type="text/css">
	.st0{fill:#FEDB2E;}
	.st1{fill:#FAA41A;}
	.st2{fill:#822321;}
	.st3{fill:#D4402B;}
	.st4{fill:#891F1B;}
</style>
<g>
	<path class="st0" d="M34.2,47.5L5,37c-3-1.1-4.7-4.7-3.7-7.9l0,0c1-3.3,4.4-5,7.4-3.9L38,35.7c3,1.1,4.7,4.7,3.7,7.9l0,0
		C40.6,46.9,37.3,48.6,34.2,47.5z"/>
	<path class="st1" d="M43.1,63.1L13.9,52.5c-3-1.1-4.7-4.7-3.7-7.9l0,0c1-3.3,4.4-5,7.4-3.9l29.2,10.6c3,1.1,4.7,4.7,3.7,7.9l0,0
		C49.5,62.4,46.2,64.2,43.1,63.1z"/>
	<path class="st1" d="M49.7,41L20.5,30.4c-3-1.1-4.7-4.7-3.7-7.9l0,0c1-3.3,4.4-5,7.4-3.9l29.2,10.6c3,1.1,4.7,4.7,3.7,7.9l0,0
		C56.1,40.4,52.8,42.1,49.7,41z"/>
	<path class="st2" d="M74.7,38.1L45.4,27.5c-3-1.1-4.7-4.7-3.7-7.9l0,0c1-3.3,4.4-5,7.4-3.9l29.2,10.6c3,1.1,4.7,4.7,3.7,7.9v0
		C81.1,37.5,77.7,39.2,74.7,38.1z"/>
	<path class="st2" d="M52.4,54.2L23.2,43.6c-3-1.1-4.7-4.7-3.7-7.9l0,0c1-3.3,4.4-5,7.4-3.9l29.2,10.6c3,1.1,4.7,4.7,3.7,7.9l0,0
		C58.8,53.5,55.5,55.3,52.4,54.2z"/>
	<path class="st2" d="M61,81.3L31.8,70.7c-3-1.1-4.7-4.7-3.7-7.9l0,0c1-3.3,4.4-5,7.4-3.9l29.2,10.6c3,1.1,4.7,4.7,3.7,7.9v0
		C67.4,80.6,64.1,82.4,61,81.3z"/>
	<path class="st2" d="M96.9,53.4c0,16.1-12.6,29.2-28.1,29.2c-2.3,0-4.5-0.3-6.7-0.8c-0.6-0.2-1.2-0.3-1.8-0.5c0,0,0,0-0.1,0
		c-0.3-0.1-0.5-0.2-0.8-0.3c0,0-0.1,0-0.1,0c-8.6-3.1-15.2-10.5-17.6-19.6c-0.7-2.5-1-5.1-1-7.9c0-1.2,0.1-2.3,0.2-3.5
		c0.1-0.7,0.2-1.4,0.3-2.1c0.6-3.2,1.7-6.2,3.2-8.9c0.1-0.3,0.3-0.6,0.5-0.9c1.9-3.2,4.4-6,7.3-8.3h0c0.4-0.3,0.7-0.5,1.1-0.8
		c4.5-3.1,9.8-4.9,15.6-4.9c2.2,0,4.3,0.3,6.3,0.8l0,0c1.2,0.3,2.4,0.7,3.6,1.1c0.3,0.1,0.6,0.2,0.8,0.3c0,0,0,0,0,0
		c0.3,0.1,0.5,0.2,0.8,0.4c2.8,1.3,5.3,3.1,7.5,5.2c-1.6,1.3-2.5,3.3-2.5,5.6c0,4,3.3,7.3,7.3,7.3c1,0,2-0.2,2.9-0.6
		C96.4,47.2,96.9,50.2,96.9,53.4z"/>
	<path class="st3" d="M98.2,53.9c0,16.1-12.6,29.2-28.1,29.2c-3.5,0-6.9-0.7-9.9-1.9c0,0,0,0-0.1,0c-0.2-0.1-0.4-0.2-0.7-0.3
		c0,0-0.1,0-0.1,0c-7.9-3.4-14-10.4-16.3-19.1c-0.7-2.5-1-5.1-1-7.9c0-1.2,0.1-2.3,0.2-3.5c0.1-0.7,0.2-1.4,0.3-2.1
		c0.6-3.2,1.7-6.2,3.2-8.9c0.1-0.3,0.3-0.6,0.5-0.8c1.9-3.2,4.4-6,7.3-8.3h0c0.3-0.3,0.7-0.5,1.1-0.8c4.5-3.1,9.8-4.9,15.6-4.9
		c2.2,0,4.3,0.3,6.3,0.7l0,0c0.7,0.2,1.4,0.4,2.1,0.6c0.3,0.1,0.6,0.2,0.9,0.3c0,0,0,0,0,0c3.2,1.2,6.2,3,8.7,5.2
		c-0.1,0.1-0.3,0.2-0.4,0.3c-1.6,1.3-2.5,3.3-2.5,5.6c0,4,3.3,7.3,7.3,7.3c1,0,2-0.2,2.9-0.6c0.3-0.1,0.7-0.3,1-0.5
		C97.6,47,98.2,50.4,98.2,53.9z"/>
	<ellipse class="st4" cx="71.7" cy="68.6" rx="4.7" ry="5.1"/>
</g>
<g>
	<path class="st3" d="M109.7,36.5l3.1-11.7l-2.4-9h2l2.4,9l3.2,11.7l5.4-20.7h2l-6.3,24.4h-2l-3.1-11.7l-3,11.7h-2.1l-6.5-24.4h2
		L109.7,36.5z"/>
	<path class="st3" d="M129.6,15.9v24.3h-1.9V15.9H129.6z"/>
	<path class="st3" d="M142.5,22.9c-0.1-0.9-0.3-1.7-0.7-2.4c-0.7-1.5-1.9-2.2-3.5-2.2c-1.4,0-2.4,0.4-3,1.2
		c-0.6,0.8-0.8,1.8-0.8,3.2c0,1.5,0.3,2.5,0.9,3.1c0.6,0.6,1.5,0.9,2.6,1c1.1,0.1,1.9,0.3,2.7,0.6c0.7,0.3,1.3,0.6,1.8,1
		c1.3,1.1,1.9,2.8,1.9,5c0,0.9-0.1,1.8-0.4,2.6c-0.3,0.8-0.6,1.5-1.1,2.2c-1.1,1.5-2.6,2.2-4.6,2.2c-2,0-3.5-0.7-4.6-2.2
		c-1-1.2-1.5-2.8-1.7-4.8h1.9c0.2,1.2,0.5,2.2,1.1,3c0.8,1,1.9,1.5,3.4,1.5c1.2,0,2.2-0.4,3-1.2c0.8-0.8,1.2-1.9,1.2-3.2
		c0-0.8-0.1-1.5-0.4-2.1s-0.7-1-1.4-1.3c-0.7-0.3-1.7-0.6-3-0.7c-3.5-0.4-5.2-2.6-5.2-6.6c0-1,0.1-1.9,0.4-2.8
		c0.2-0.8,0.6-1.6,1.1-2.2c1-1.3,2.4-2,4.3-2h0c1.9,0,3.3,0.7,4.3,2.1c1,1.4,1.6,3.1,1.8,5.1L142.5,22.9L142.5,22.9z"/>
	<path class="st3" d="M159.1,15.9v24.3h-1.8V29.3h-8.5v10.9h-1.9V15.9h1.9v10.9h8.5V15.9H159.1z"/>
	<path class="st3" d="M163.7,15.9v24.3h-1.9V15.9H163.7z"/>
	<path class="st3" d="M179.7,15.9v24.3h-2.2l-9.2-19.6v19.6h-1.9V15.9h2l9.4,20.2V15.9H179.7z"/>
	<path class="st3" d="M198.6,28.7v6.6c-0.5,1-1.1,1.8-1.8,2.5c-0.3,0.3-0.7,0.7-1.3,1.1c-1.4,1-2.8,1.4-4.3,1.4
		c-1.7,0-3.2-0.6-4.7-1.7c-1.5-1.1-2.6-2.7-3.4-4.8c-0.4-1.1-0.7-2.1-0.8-3c-0.2-0.9-0.2-1.9-0.2-2.8c0-1.9,0.3-3.6,0.9-5.2
		c0.4-1.1,0.9-2.1,1.6-3.1c0.6-0.9,1.4-1.7,2.2-2.3c1.4-1,2.9-1.5,4.5-1.5c0.4,0,0.8,0,1.3,0.1c1.1,0.2,2.1,0.7,3.1,1.4
		c1,0.7,1.8,1.7,2.6,2.8l-1.4,1.6c-0.8-1.3-1.8-2.2-2.9-2.7c-0.8-0.4-1.7-0.7-2.7-0.7c-1.2,0-2.4,0.4-3.4,1.1
		c-0.7,0.5-1.2,1.1-1.8,1.8c-0.5,0.7-1,1.5-1.3,2.5c-0.5,1.3-0.8,2.8-0.8,4.3c0,0.8,0.1,1.7,0.2,2.5c0.4,2,1.3,3.8,2.6,5.1
		c0.6,0.6,1.3,1.1,2.1,1.5s1.5,0.5,2.3,0.5c1.1,0,2.1-0.3,3-0.9c1-0.6,1.8-1.4,2.5-2.5l0-3.2h-2.7v-2.5H198.6z"/>
</g>
<g>
	<path class="st1" d="M121.8,66.5c-0.2-0.9-0.6-1.7-1.2-2.4c-1.3-1.4-3.5-2.2-6.5-2.2c-2.5,0-4.3,0.4-5.5,1.2
		c-1,0.8-1.6,1.8-1.6,3.1c0,1.5,0.6,2.5,1.7,3c1.1,0.6,2.7,0.9,4.8,1c1.9,0.1,3.6,0.3,4.9,0.6c1.3,0.3,2.5,0.6,3.4,1
		c2.4,1.1,3.6,2.7,3.6,4.9c0,0.9-0.2,1.7-0.7,2.5c-0.5,0.8-1.2,1.5-2.1,2.1c-2,1.4-4.8,2.2-8.4,2.2c-3.6,0-6.4-0.7-8.5-2.1
		c-1.8-1.2-2.8-2.7-3.2-4.7h3.5c0.3,1.2,1,2.2,2.1,2.9c1.4,1,3.5,1.4,6.2,1.4c2.3,0,4.1-0.4,5.5-1.2c1.4-0.8,2.1-1.8,2.1-3.1
		c0-0.8-0.2-1.5-0.7-2c-0.5-0.5-1.3-1-2.6-1.3c-1.3-0.3-3.1-0.6-5.4-0.7c-6.4-0.4-9.6-2.6-9.6-6.5c0-1,0.2-1.9,0.7-2.7
		c0.5-0.8,1.1-1.5,1.9-2.1c1.8-1.3,4.5-2,7.8-2h0c3.4,0,6.1,0.7,7.9,2c1.8,1.3,2.9,3,3.2,5L121.8,66.5L121.8,66.5z"/>
	<path class="st1" d="M147.5,62h-8.6v21.4h-3.4V62h-8.6v-2.4h20.6V62z"/>
	<path class="st1" d="M166.2,74.6h-11.7l-4.3,8.8h-3.7l11.7-23.8h4.3l11.7,23.8h-3.7L166.2,74.6z M165.1,72.3l-4.8-9.8l-4.8,9.8
		H165.1z"/>
	<path class="st1" d="M186.1,74.8l10.8,8.6h-4.6l-10.8-8.6h-0.3v8.6h-3.5V59.6h8.5c1.9,0,3.7,0.3,5.3,1c1.6,0.7,2.9,1.6,3.9,2.8
		c1,1.2,1.4,2.5,1.4,3.8s-0.5,2.7-1.4,3.8c-1,1.2-2.2,2.1-3.9,2.8c-1.6,0.7-3.4,1-5.3,1H186.1z M181.2,62v10.4h5.1
		c1.3,0,2.5-0.2,3.6-0.7s2-1.1,2.6-1.9c0.7-0.8,1-1.6,1-2.6c0-0.9-0.3-1.8-1-2.6c-0.7-0.8-1.5-1.4-2.6-1.9s-2.3-0.7-3.6-0.7H181.2z"
		/>
</g>
</svg>
