<svg id="Layer_1" data-name="Layer 1" xmlns="http://www.w3.org/2000/svg" viewBox="0 0 198.98 81.72"><defs><style>.cls-1{fill:#fedb2e;}.cls-2,.cls-7{fill:#faa41a;}.cls-3{fill:#822321;}.cls-4,.cls-6{fill:#d4402b;}.cls-5{fill:#891f1b;}.cls-6{font-size:36.59px;}.cls-6,.cls-7{font-family:SulphurPoint-Regular, Sulphur Point;}.cls-7{font-size:35.86px;}.cls-8{letter-spacing:-0.05em;}.cls-9{letter-spacing:-0.1em;}.cls-10{letter-spacing:-0.02em;}</style></defs><title>wishingstar</title><path class="cls-1" d="M34.22,47.53,5,37A6.39,6.39,0,0,1,1.32,29h0a5.78,5.78,0,0,1,7.42-3.92L38,35.68a6.37,6.37,0,0,1,3.66,7.93h0A5.78,5.78,0,0,1,34.22,47.53Z" transform="translate(-1.02 -9.73)"/><path class="cls-2" d="M43.15,63.09,13.92,52.51a6.37,6.37,0,0,1-3.66-7.93h0a5.78,5.78,0,0,1,7.41-3.92L46.9,51.24a6.38,6.38,0,0,1,3.67,7.93h0A5.79,5.79,0,0,1,43.15,63.09Z" transform="translate(-1.02 -9.73)"/><path class="cls-2" d="M49.75,41,20.52,30.44a6.39,6.39,0,0,1-3.67-7.93h0a5.79,5.79,0,0,1,7.42-3.92L53.5,29.16a6.38,6.38,0,0,1,3.67,7.93h0A5.79,5.79,0,0,1,49.75,41Z" transform="translate(-1.02 -9.73)"/><path class="cls-3" d="M74.67,38.11,45.44,27.54a6.4,6.4,0,0,1-3.67-7.94h0a5.8,5.8,0,0,1,7.42-3.92L78.42,26.26a6.38,6.38,0,0,1,3.67,7.93h0A5.79,5.79,0,0,1,74.67,38.11Z" transform="translate(-1.02 -9.73)"/><path class="cls-3" d="M52.41,54.17,23.18,43.6a6.39,6.39,0,0,1-3.67-7.93h0a5.78,5.78,0,0,1,7.42-3.92L56.16,42.32a6.39,6.39,0,0,1,3.66,7.93h0A5.78,5.78,0,0,1,52.41,54.17Z" transform="translate(-1.02 -9.73)"/><path class="cls-3" d="M61,81.25,31.79,70.68a6.4,6.4,0,0,1-3.67-7.94h0a5.8,5.8,0,0,1,7.42-3.92L64.77,69.4a6.39,6.39,0,0,1,3.66,7.93h0A5.79,5.79,0,0,1,61,81.25Z" transform="translate(-1.02 -9.73)"/><path class="cls-3" d="M96.86,53.42c0,16.11-12.59,29.16-28.12,29.16a27.35,27.35,0,0,1-6.68-.83c-.62-.16-1.22-.34-1.83-.53,0,0,0,0,0,0l-.77-.28a.35.35,0,0,1-.11,0A28.74,28.74,0,0,1,41.65,61.29a29.54,29.54,0,0,1-1-7.87,28.77,28.77,0,0,1,.21-3.48,19.46,19.46,0,0,1,.31-2A28.35,28.35,0,0,1,44.3,39c.13-.28.3-.56.46-.85a29.45,29.45,0,0,1,7.33-8.26h0c.36-.26.71-.53,1.08-.77a27.25,27.25,0,0,1,15.56-4.87,26.91,26.91,0,0,1,6.31.75h0a27.23,27.23,0,0,1,3.59,1.13l.83.33,0,0,.78.35A27.52,27.52,0,0,1,87.85,32a7.34,7.34,0,0,0,4.73,12.88,7.08,7.08,0,0,0,2.88-.61A30.09,30.09,0,0,1,96.86,53.42Z" transform="translate(-1.02 -9.73)"/><path class="cls-4" d="M98.19,53.94c0,16.1-12.6,29.15-28.12,29.15a27.19,27.19,0,0,1-9.94-1.87s0,0-.06,0c-.22-.09-.45-.18-.66-.28a.35.35,0,0,1-.11,0A28.86,28.86,0,0,1,43,61.81a29.6,29.6,0,0,1-1.05-7.87,28.65,28.65,0,0,1,.21-3.48,19.46,19.46,0,0,1,.31-2.05,28.49,28.49,0,0,1,3.17-8.89,8.85,8.85,0,0,1,.47-.84,29.09,29.09,0,0,1,7.31-8.26h0c.35-.27.71-.53,1.08-.77a27.25,27.25,0,0,1,15.56-4.87,26.9,26.9,0,0,1,6.31.74l0,0a20.21,20.21,0,0,1,2.15.61c.32.11.63.21.94.33l0,0a27.38,27.38,0,0,1,8.72,5.21l-.42.33a7.34,7.34,0,0,0,4.73,12.88,7.08,7.08,0,0,0,2.88-.61,6,6,0,0,0,1-.52A29.86,29.86,0,0,1,98.19,53.94Z" transform="translate(-1.02 -9.73)"/><ellipse class="cls-5" cx="70.7" cy="58.89" rx="4.73" ry="5.05"/><text class="cls-6" transform="translate(100.01 30.46) scale(0.75 1)">WISHING</text><text class="cls-7" transform="translate(99.48 73.68) scale(1.4 1)"><tspan class="cls-8">S</tspan><tspan class="cls-9" x="17.43" y="0">T</tspan><tspan class="cls-10" x="31.41" y="0">A</tspan><tspan x="53.35" y="0">R</tspan></text></svg>